<?xml version="1.0" encoding="iso-8859-1"?>
<!-- Generator: Adobe Illustrator 17.1.0, SVG Export Plug-In . SVG Version: 6.00 Build 0)  -->
<!DOCTYPE svg PUBLIC "-//W3C//DTD SVG 1.1//EN" "http://www.w3.org/Graphics/SVG/1.1/DTD/svg11.dtd">
<svg version="1.1" id="Capa_1" xmlns="http://www.w3.org/2000/svg" xmlns:xlink="http://www.w3.org/1999/xlink" x="0px" y="0px"
	 viewBox="0 0 200 200" style="enable-background:new 0 0 200 200;" xml:space="preserve">
<g>
	<path d="M55.472,28.542c0.039,1.709,0.332,3.759,1.276,4.872c0.225,0.265,0.822,0.969,2.817,0.969h81.017
		c5.55,0,9.686,0.001,12.909,0.664V22.669H65.788C61.277,22.669,57.379,25.061,55.472,28.542z"/>
	<path d="M84.92,104.395c-0.295-0.96-0.77-0.959-1.062,0.002l-3.71,12.211c-0.292,0.961,0.285,1.739,1.289,1.739h5.949
		c1.004,0,1.579-0.778,1.284-1.738L84.92,104.395z"/>
	<path d="M153.491,40.202c-2.634-0.815-6.678-0.82-12.909-0.82H59.565c-2.311,0-4.041-0.602-5.342-1.548
		c-5.023-3.654-3.561-12.527-3.561-12.527c0.023-0.062,0.051-0.119,0.072-0.183c1.662-4.898,6.304-7.701,11.27-7.701
		c0.367,0,0.736,0.015,1.105,0.046c0.144,0.012,0.285,0.018,0.421,0.018c0.428,0,0.82-0.057,1.177-0.159h88.564
		c5.741,0,5.741-8.903,0-8.903H63.126c-0.361,0-0.699,0.035-1.015,0.102c-0.201-0.006-0.401-0.01-0.601-0.01
		c-10.405,0-19.808,8.611-19.751,19.115c0.086,15.828,0,31.659,0,47.488c0,21.876,0,43.752,0,65.628c0,11.052,0,22.103,0,33.155
		c0,9.834,7.972,17.806,17.806,17.806h81.017c17.806,0,17.806,0,17.806-17.806V57.188C158.388,45.752,158.22,41.666,153.491,40.202z
		 M106.491,134.988H96.003c-1.004,0-2.054-0.779-2.345-1.74l-1.129-3.725c-0.291-0.961-1.341-1.74-2.345-1.74H78.508
		c-1.004,0-2.048,0.781-2.333,1.743l-1.098,3.718c-0.284,0.963-1.329,1.743-2.333,1.743H62.611c-1.004,0-1.531-0.762-1.178-1.702
		l15.125-40.242c0.353-0.94,1.453-1.702,2.458-1.702H90.09c1.004,0,2.104,0.762,2.457,1.702l15.122,40.242
		C108.022,134.227,107.495,134.988,106.491,134.988z M144.391,116.201c0,1.004-0.814,1.818-1.818,1.818h-7.826
		c-1.004,0-1.818,0.814-1.818,1.818v7.767c0,1.004-0.814,1.818-1.818,1.818h-5.981c-1.004,0-1.818-0.814-1.818-1.818v-7.767
		c0-1.004-0.814-1.818-1.818-1.818h-7.767c-1.004,0-1.818-0.814-1.818-1.818v-5.98c0-1.004,0.814-1.818,1.818-1.818h7.767
		c1.004,0,1.818-0.814,1.818-1.818v-7.827c0-1.004,0.814-1.818,1.818-1.818h5.981c1.004,0,1.818,0.814,1.818,1.818v7.827
		c0,1.004,0.814,1.818,1.818,1.818h7.826c1.004,0,1.818,0.814,1.818,1.818V116.201z"/>
</g>
</svg>
