<?xml version="1.0" encoding="iso-8859-1"?>
<!-- Generator: Adobe Illustrator 17.1.0, SVG Export Plug-In . SVG Version: 6.00 Build 0)  -->
<!DOCTYPE svg PUBLIC "-//W3C//DTD SVG 1.1//EN" "http://www.w3.org/Graphics/SVG/1.1/DTD/svg11.dtd">
<svg version="1.1" id="Capa_1" xmlns="http://www.w3.org/2000/svg" xmlns:xlink="http://www.w3.org/1999/xlink" x="0px" y="0px"
	 viewBox="0 0 200 200" style="enable-background:new 0 0 200 200;" xml:space="preserve">
<g>
	<path d="M14.383,186.086h167.234c2.973,0,5.383-2.697,5.383-6.023v-48.401c-6.774,7.841-16.336,12.078-27.569,12.078
		c-2.49,0-5.09-0.21-7.728-0.625c-17.479-2.749-29.32-13.881-34.245-32.195c-3.55-13.201-2.18-25.477-2.12-25.994
		c0.284-2.44,2.299-4.307,4.752-4.413c0.073-0.003,0.145-0.005,0.217-0.005c0.54,0,1.064,0.087,1.556,0.249
		c0.566-3.155,1.623-6.328,3.153-9.511h-22.563C100.669,63.937,97.73,57,93,57H14c-2.761,0-5,2.239-5,5v15.27V88v92.063
		C9,183.389,11.41,186.086,14.383,186.086z"/>
	<path d="M133.612,103.387c-9.922-1.018-13.306-17.882-13.306-17.882s-4.328,37.219,21.456,49.443
		c-2.842-5.667-2.677-13.001,0.269-18.002c5.811-9.863,1.446-15.832,1.446-15.832c12.301,4.632,5.658,16.14,5.658,16.14
		s10.849-2.568,2.999-17.075c-7.85-14.507,1.035-20.758,1.035-20.758s-6.056,8.92,9.72,23.324
		c15.777,14.404,5.101,23.51,5.101,23.51c4.802-0.477,6.465-8.631,6.465-8.631s1.358,12.089-5.021,19.689
		c8.01-2.42,13.838-7.731,17.566-14.336c6.697-11.865,6.638-27.869,0.33-38.656c-0.116-0.199-0.218-0.392-0.33-0.589
		c-2.613-4.589-4.166-8.759-5.004-12.463c-2.825-12.494,2.451-19.682,2.451-19.682c-12.397,4.623-15.518,12.645-15.458,19.66
		c0.063,7.39,3.656,13.661,3.656,13.661s-10.457-2.519-11.875-13.661c-0.657-5.163,0.621-12.174,5.79-21.652
		c16.321-29.933-2.002-42.913-2.002-42.913s12.458,18.478-20.246,48.144c-6.532,5.925-10.877,11.42-13.656,16.421
		C119.524,91.285,133.612,103.387,133.612,103.387z"/>
</g>
</svg>
