<?xml version="1.0" encoding="iso-8859-1"?>
<!-- Generator: Adobe Illustrator 17.1.0, SVG Export Plug-In . SVG Version: 6.00 Build 0)  -->
<!DOCTYPE svg PUBLIC "-//W3C//DTD SVG 1.1//EN" "http://www.w3.org/Graphics/SVG/1.1/DTD/svg11.dtd">
<svg version="1.1" id="Capa_1" xmlns="http://www.w3.org/2000/svg" xmlns:xlink="http://www.w3.org/1999/xlink" x="0px" y="0px"
	 viewBox="0 0 200 200" style="enable-background:new 0 0 200 200;" xml:space="preserve">
<g>
	<path d="M109.514,102.73v32.369c24.206-4.486,42.6-25.742,42.6-51.228c0-28.735-23.378-52.113-52.114-52.113
		S47.886,55.136,47.886,83.871c0,25.486,18.394,46.742,42.6,51.228V102.73c-6.89-3.483-11.625-10.61-11.625-18.859
		c0-11.675,9.464-21.139,21.139-21.139s21.139,9.464,21.139,21.139C121.139,92.12,116.404,99.247,109.514,102.73z"/>
	<path d="M100,4.038c-44.091,0-79.833,35.743-79.833,79.833c0,39.039,28.029,71.512,65.056,78.446
		c1.054-2.399,2.936-4.315,5.264-5.332v-11.729c-29.75-4.592-52.6-30.37-52.6-61.385c0-34.249,27.864-62.113,62.114-62.113
		s62.114,27.864,62.114,62.113c0,31.016-22.85,56.793-52.6,61.385v11.729c2.328,1.017,4.21,2.933,5.264,5.332
		c37.027-6.933,65.056-39.406,65.056-78.446C179.833,39.781,144.091,4.038,100,4.038z"/>
	<path d="M105.684,161.185h-1.17v-15.381v-10.026v-31.261V89.298l7.888,2.815L100.365,72.5L87.598,92.112l7.888-2.815v15.218v31.261
		v10.026v15.381h-1.17c-1.525,0-2.889,0.754-3.809,1.939c-0.751,0.967-1.206,2.22-1.206,3.593v26.546l10.366-11.063l11.034,11.063
		v-26.546c0-1.373-0.456-2.626-1.206-3.593C108.573,161.939,107.209,161.185,105.684,161.185z"/>
</g>
</svg>
