<?xml version="1.0" encoding="iso-8859-1"?>
<!-- Generator: Adobe Illustrator 17.1.0, SVG Export Plug-In . SVG Version: 6.00 Build 0)  -->
<!DOCTYPE svg PUBLIC "-//W3C//DTD SVG 1.1//EN" "http://www.w3.org/Graphics/SVG/1.1/DTD/svg11.dtd">
<svg version="1.1" id="Capa_1" xmlns="http://www.w3.org/2000/svg" xmlns:xlink="http://www.w3.org/1999/xlink" x="0px" y="0px"
	 viewBox="0 0 200 200" style="enable-background:new 0 0 200 200;" xml:space="preserve">
<g>
	<path d="M148.348,64.351l-2.224,20.146l7.354,8.084c16.333-11.692,33.531-34.185,38.959-77.469l-23.457,8.9L150.599,9.864
		c0,0-4.852,25.928-23.822,47.36l1.722,3.027L148.348,64.351z"/>
	<path d="M52.885,193.169c0,0,4.727-25.283,23.111-46.553l-4.496-7.9l-19.848-4.099l2.224-20.146l-3.742-4.113
		c-16.372,11.666-33.645,34.166-39.088,77.563l23.457-8.9L52.885,193.169z"/>
	<path d="M55.587,106.836l5.666,5.239l-3.619,18.196l18.424,2.17l4.341,9.441l3.413,7.423L100,140.218l16.187,9.087l7.754-16.863
		l18.424-2.171l-3.618-18.196l13.618-12.591l-3.908-3.614l-9.71-8.977l3.619-18.196l-18.424-2.171l-1.969-4.283l-5.785-12.58
		L100,58.75l-16.187-9.087l-7.754,16.863l-18.424,2.17l3.618,18.197L47.635,99.484L55.587,106.836z M69.554,77.361L82.801,75.8
		l5.569-12.111l5.864,3.292l-8.613,14.25L70.945,84.36L69.554,77.361z M111.63,63.689l2.433,5.292l3.136,6.82l13.248,1.562
		l-1.392,6.998l-14.676-3.129l-5.32-8.802l-3.293-5.448L111.63,63.689z M134.698,102.199l-6.851,6.334l2.6,13.073l-6.856,0.808
		l-2.28-16.367l1.067-1.034l10.366-10.052l4.892,4.523L134.698,102.199z M100,128.75l-11.63,6.529l-0.144-0.312l-2.501-5.44
		l14.275-6.99l4.439,2.174l9.836,4.816l-2.645,5.752L100,128.75z M62.365,99.484l4.892-4.523l4.973,4.822l6.46,6.264l-2.28,16.367
		l-6.857-0.808l2.6-13.072l-6.926-6.403L62.365,99.484z"/>
</g>
</svg>
