<?xml version="1.0" encoding="iso-8859-1"?>
<!-- Generator: Adobe Illustrator 17.1.0, SVG Export Plug-In . SVG Version: 6.00 Build 0)  -->
<!DOCTYPE svg PUBLIC "-//W3C//DTD SVG 1.1//EN" "http://www.w3.org/Graphics/SVG/1.1/DTD/svg11.dtd">
<svg version="1.1" id="Capa_1" xmlns="http://www.w3.org/2000/svg" xmlns:xlink="http://www.w3.org/1999/xlink" x="0px" y="0px"
	 viewBox="0 0 200 200" style="enable-background:new 0 0 200 200;" xml:space="preserve">
<g>
	<path d="M164.095,17.041c-1.327-0.344-2.651-0.507-3.937-0.507c-5.617,0-10.504,3.119-11.762,7.977l-14.516,56.081h-9.371
		l-8.198-67.18c-0.68-5.574-6.154-9.587-12.643-9.587c-0.637,0-1.284,0.039-1.938,0.118c-7.306,0.891-12.623,6.576-11.876,12.697
		l7.548,61.865c1.222,2.165,1.928,4.595,1.928,7.173v49.621c0,8.914-8.221,16.165-18.327,16.165c-7.481,0-13.919-3.979-16.764-9.66
		c-3.237,4.589-8.99,7.66-15.556,7.66c-10.105,0-18.327-7.252-18.327-16.165V88.748c-3.038,3.761-4.86,8.544-4.86,13.756
		l2.191,66.831c0,12.101,9.81,21.912,21.912,21.912h93.412c12.102,0,21.912-9.81,21.912-21.912l3-66.831
		c0-6.741-3.05-12.766-7.839-16.785l14.114-54.529C175.744,25.219,171.221,18.885,164.095,17.041z M106.226,178.471H149
		c1.381,0,2.5,1.119,2.5,2.5s-1.119,2.5-2.5,2.5h-42.774c-7.678,0-13.925-7.239-13.925-16.137s6.247-16.136,13.925-16.136H149
		c1.381,0,2.5,1.119,2.5,2.5s-1.119,2.5-2.5,2.5h-42.774c-4.921,0-8.925,4.995-8.925,11.136S101.305,178.471,106.226,178.471z"/>
	<path d="M48.685,144.464c7.36,0,13.327-4.999,13.327-11.165V87.677c0-2.69-1.137-5.158-3.029-7.086
		c-0.977-0.995-2.163-1.836-3.49-2.5c-1.995-0.997-4.317-1.58-6.808-1.58c-3.35,0-6.403,1.043-8.745,2.754
		c-1.611,1.177-2.878,2.67-3.667,4.368c-0.583,1.255-0.915,2.616-0.915,4.044v45.621C35.358,139.465,41.325,144.464,48.685,144.464z
		"/>
	<path d="M71.246,78.092c-0.828,0.747-1.535,1.585-2.095,2.5c-0.935,1.526-1.473,3.252-1.473,5.086v49.621
		c0,6.166,5.966,11.165,13.327,11.165c7.36,0,13.327-4.999,13.327-11.165V85.677c0-1.834-0.538-3.559-1.473-5.086
		c-0.561-0.915-1.268-1.753-2.095-2.5c-1.149-1.037-2.527-1.888-4.071-2.5c-1.727-0.685-3.65-1.079-5.688-1.079
		s-3.961,0.394-5.688,1.079C73.773,76.204,72.395,77.055,71.246,78.092z"/>
</g>
</svg>
