<?xml version="1.0" encoding="iso-8859-1"?>
<!-- Generator: Adobe Illustrator 17.1.0, SVG Export Plug-In . SVG Version: 6.00 Build 0)  -->
<!DOCTYPE svg PUBLIC "-//W3C//DTD SVG 1.1//EN" "http://www.w3.org/Graphics/SVG/1.1/DTD/svg11.dtd">
<svg version="1.1" id="Capa_1" xmlns="http://www.w3.org/2000/svg" xmlns:xlink="http://www.w3.org/1999/xlink" x="0px" y="0px"
	 viewBox="0 0 200 200" style="enable-background:new 0 0 200 200;" xml:space="preserve">
<g>
	<path d="M33.196,68.318c0,0,1.634,2.375,4.432,2.375c1.109,0,2.402-0.373,3.848-1.415c1.861-1.341,3.976-3.788,6.285-7.973
		c7.152-12.962,23.191-14.073,28.481-14.073c1.094,0,1.729,0.048,1.729,0.048s0.635-0.048,1.729-0.048
		c5.288,0,21.329,1.11,28.481,14.073c2.309,4.185,4.425,6.632,6.285,7.973c1.447,1.042,2.739,1.415,3.848,1.415
		c2.799,0,4.432-2.375,4.432-2.375s3.237-5.934-3.237-11.868c0,0,4.046-51.722-41.538-51.722c-48.416,0-41.538,51.722-41.538,51.722
		C29.959,62.384,33.196,68.318,33.196,68.318z"/>
	<path d="M50.383,119.13c3.249,0,5.882-2.634,5.882-5.882v-1.381v-5.645v-0.078c0,0,0-0.001,0-0.001
		c0-3.248-2.634-5.881-5.882-5.881H11.56c-3.249,0-5.882,2.634-5.882,5.882v7.103c0,3.249,2.634,5.882,5.882,5.882h4.034H50.383z
		 M12.971,109.696c0-2.209,1.791-4,4-4c1.183,0,2.235,0.524,2.967,1.34c0.635,0.708,1.033,1.634,1.033,2.66c0,2.209-1.791,4-4,4
		c-0.475,0-0.925-0.097-1.348-0.249C14.081,112.892,12.971,111.43,12.971,109.696z"/>
	<path d="M155.265,112.765C155.265,112.765,155.265,112.765,155.265,112.765c-0.84,0-1.672,0.031-2.5,0.079
		c-0.841,0.049-1.673,0.126-2.5,0.223v-6.923c0-3.249-2.634-5.882-5.882-5.882H105.56c-3.249,0-5.882,2.634-5.882,5.882v0.078v5.643
		v1.383c0,3.249,2.634,5.882,5.882,5.882h27.298c-1.248,0.772-2.451,1.608-3.609,2.5c-1.026,0.79-2.016,1.622-2.965,2.5H105.56
		c-3.979,0-7.456-2.153-9.354-5.349c-0.964-1.624-1.529-3.512-1.529-5.533v-7.025v-0.078c0-3.833,1.997-7.202,5-9.141v-4.048
		c6.285-4.554,11.082-11.03,13.529-18.569c-3.323-1.752-6.432-5.278-9.404-10.665C97.921,53.06,83.867,52.231,79.7,52.231
		c-0.851,0-1.354,0.034-1.355,0.034h0l-0.374,0.026l-0.36-0.025c-0.005,0-0.509-0.035-1.368-0.035
		c-4.167,0-18.221,0.829-24.103,11.489c-2.972,5.387-6.081,8.914-9.404,10.665c2.447,7.54,7.244,14.015,13.529,18.569v4.048
		c3.003,1.939,5,5.309,5,9.142v0.078v7.025c0,2.022-0.564,3.91-1.529,5.533c-1.898,3.196-5.375,5.349-9.354,5.349h-33.3
		c2.46,2.228,5.194,4.078,8.26,5.565c4.061,1.969,0.51,8.005-3.533,6.044c-2.191-1.062-4.265-2.331-6.215-3.766v5.581
		c2.88,2.194,6.058,3.971,9.557,5.234c4.212,1.52,2.396,8.286-1.861,6.75c-2.698-0.974-5.268-2.173-7.696-3.591v28.29
		c0,4.306,3.491,7.797,7.797,7.797h98.411c7.835,9.861,19.919,16.202,33.463,16.202c23.564,0,42.735-19.171,42.735-42.735
		C198,131.936,178.829,112.765,155.265,112.765z M155.265,191.235c-9.186,0-17.571-3.486-23.908-9.202
		c-7.257-6.545-11.827-16.015-11.827-26.534c0-9.29,3.566-17.762,9.398-24.124c0.551-0.6,1.126-1.177,1.715-1.738
		c2.251-2.144,4.775-4.004,7.523-5.508c0.47-0.257,0.948-0.502,1.431-0.739c0.248-0.121,0.5-0.236,0.751-0.351
		c1.151-0.531,2.334-1.001,3.547-1.409c0.963-0.324,1.943-0.61,2.94-0.852c0.646-0.157,1.299-0.294,1.958-0.415
		c1.384-0.254,2.793-0.431,4.227-0.521c0.744-0.046,1.491-0.078,2.246-0.078c19.705,0,35.735,16.031,35.735,35.735
		S174.969,191.235,155.265,191.235z M140.348,105.696c2.209,0,4,1.791,4,4c0,2.209-1.791,4-4,4c-0.006,0-0.011-0.002-0.016-0.002
		c-2.201-0.009-3.984-1.795-3.984-3.998c0-0.775,0.23-1.492,0.612-2.105C137.666,106.457,138.914,105.696,140.348,105.696z"/>
	<polygon points="156.458,138.887 140.348,148.658 128.655,155.75 128.655,169.036 140.348,161.944 156.458,152.173 
		184.262,169.036 184.262,155.75 	"/>
</g>
</svg>
