<?xml version="1.0" encoding="iso-8859-1"?>
<!-- Generator: Adobe Illustrator 17.1.0, SVG Export Plug-In . SVG Version: 6.00 Build 0)  -->
<!DOCTYPE svg PUBLIC "-//W3C//DTD SVG 1.1//EN" "http://www.w3.org/Graphics/SVG/1.1/DTD/svg11.dtd">
<svg version="1.1" id="Capa_1" xmlns="http://www.w3.org/2000/svg" xmlns:xlink="http://www.w3.org/1999/xlink" x="0px" y="0px"
	 viewBox="0 0 200 200" style="enable-background:new 0 0 200 200;" xml:space="preserve">
<g>
	<path d="M177.165,172.029V82.142c-0.633,0.116-1.282,0.185-1.948,0.185h-36.73l24.669,50.14c0.636,1.293,0.03,1.886-1.353,1.326
		l-21.39-8.67c-1.383-0.561-2.887,0.033-3.358,1.325l-7.29,19.99c-0.471,1.293-1.369,1.292-2.005,0L99.327,88.649l-25.035,56.557
		c-0.557,1.258-1.456,1.205-2.009-0.118l-8.548-20.456c-0.553-1.323-2.096-2.006-3.447-1.526l-20.89,7.425
		c-1.351,0.48-1.994-0.15-1.438-1.408l20.715-46.797H24.784c-0.263,0-0.521-0.021-0.779-0.039v89.742
		c0,9.686,7.852,17.537,17.537,17.537h118.085C169.313,189.567,177.165,181.715,177.165,172.029z"/>
	<path d="M24.36,77.306c0.14,0.01,0.281,0.021,0.424,0.021H60.89h32.867h10.582h31.687h39.19c0.535,0,1.052-0.078,1.544-0.213
		c2.478-0.678,4.301-2.94,4.301-5.633V52.71c0-3.229-2.617-5.846-5.846-5.846h-21.364c1.495-0.796,3.002-1.623,4.482-2.5
		c1.323-0.784,2.62-1.612,3.866-2.5c3.163-2.255,5.982-4.9,7.948-8.253c2.927-4.991,3.673-13.1-0.793-17.574
		C157.48,4.141,139.83,14.284,128,21.377c-9.763,5.854-18.656,12.672-26.731,20.487c-0.227,0.22-0.459,0.432-0.685,0.654
		c-0.226-0.221-0.458-0.434-0.685-0.654c-8.075-7.815-16.968-14.633-26.73-20.487c-11.829-7.093-29.48-17.236-41.354-5.34
		c-4.466,4.474-3.719,12.584-0.793,17.574c1.966,3.352,4.785,5.998,7.948,8.253c1.246,0.888,2.543,1.716,3.866,2.5
		c1.48,0.877,2.987,1.704,4.482,2.5H24.784c-3.229,0-5.846,2.617-5.846,5.846v18.772C18.938,74.567,21.33,77.088,24.36,77.306z
		 M127.587,35.342c4.712-3.116,27.976-18.902,32.751-11.858c4.326,6.38-13.723,14.655-23.025,18.38
		c-2.08,0.833-3.727,1.441-4.584,1.747c-0.731,0.261-1.464,0.508-2.199,0.753c-2.833,0.946-5.69,1.78-8.57,2.5h-9.123
		c0.933-0.847,1.876-1.681,2.834-2.5c0.986-0.842,1.968-1.689,2.979-2.5C121.531,39.555,124.512,37.376,127.587,35.342z
		 M70.637,44.364c-0.734-0.245-1.468-0.492-2.198-0.753c-0.857-0.306-2.504-0.914-4.584-1.747c-9.302-3.725-27.351-12-23.025-18.38
		c4.776-7.044,28.04,8.742,32.752,11.858c3.076,2.034,6.057,4.213,8.936,6.522c1.011,0.811,1.993,1.658,2.979,2.5
		c0.958,0.819,1.901,1.653,2.834,2.5h-9.122C76.327,46.144,73.47,45.31,70.637,44.364z"/>
</g>
</svg>
