<?xml version="1.0" encoding="iso-8859-1"?>
<!-- Generator: Adobe Illustrator 17.1.0, SVG Export Plug-In . SVG Version: 6.00 Build 0)  -->
<!DOCTYPE svg PUBLIC "-//W3C//DTD SVG 1.1//EN" "http://www.w3.org/Graphics/SVG/1.1/DTD/svg11.dtd">
<svg version="1.1" id="Capa_1" xmlns="http://www.w3.org/2000/svg" xmlns:xlink="http://www.w3.org/1999/xlink" x="0px" y="0px"
	 viewBox="0 0 200 200" style="enable-background:new 0 0 200 200;" xml:space="preserve">
<g>
	<rect x="8.667" y="141.08" width="55.889" height="43.087"/>
	<rect x="135.444" y="155.786" width="55.889" height="28.38"/>
	<path d="M130.444,155.786v-32.508H69.556v17.802v43.087h60.889V155.786z M103,169.977c0,1.657-1.343,3-3,3s-3-1.343-3-3v-25.247
		l-3.376,3.388c-0.586,0.588-1.355,0.882-2.125,0.882c-0.766,0-1.532-0.292-2.118-0.875c-1.173-1.169-1.177-3.069-0.007-4.243
		l8.501-8.532c0.001-0.001,0.002-0.001,0.002-0.002c0.139-0.139,0.292-0.264,0.456-0.374c0.073-0.049,0.153-0.082,0.229-0.124
		c0.095-0.052,0.187-0.11,0.288-0.152c0.099-0.041,0.201-0.064,0.303-0.094c0.086-0.025,0.168-0.059,0.257-0.077
		c0.193-0.039,0.39-0.059,0.586-0.059c0.001,0,0.002,0,0.003,0c0.03,0,0.058,0.008,0.089,0.009c0.166,0.005,0.333,0.018,0.496,0.05
		c0.089,0.018,0.171,0.05,0.257,0.076c0.102,0.03,0.204,0.053,0.303,0.094c0.097,0.04,0.185,0.095,0.277,0.145
		c0.08,0.043,0.163,0.079,0.24,0.13c0.139,0.093,0.267,0.202,0.388,0.316c0.021,0.02,0.047,0.034,0.068,0.055
		c0.001,0.001,0.001,0.002,0.002,0.002c0.139,0.139,0.264,0.292,0.374,0.456c0.049,0.073,0.083,0.153,0.125,0.23
		c0.052,0.095,0.11,0.186,0.151,0.287c0.041,0.099,0.065,0.203,0.095,0.306c0.025,0.085,0.058,0.167,0.076,0.255
		c0.039,0.193,0.059,0.39,0.059,0.587c0,0.001,0,0.002,0,0.003V169.977z"/>
	<circle cx="102.818" cy="50.291" r="8.072"/>
	<path d="M94.243,70.252v11.944l-11.627,14.21c-1.172,1.433-1.026,3.532,0.335,4.788l8.918,8.231
		c0.673,0.621,1.524,0.928,2.373,0.928c0.943,0,1.883-0.379,2.573-1.126c1.311-1.42,1.223-3.635-0.198-4.946l-6.495-5.995l5.9-7.21
		h8.441v24.009c0,1.425,0.855,2.646,2.077,3.192c0.436,0.195,0.915,0.308,1.423,0.308s0.988-0.113,1.423-0.308
		c1.222-0.546,2.077-1.767,2.077-3.192V85.933c0-0.239-0.025-0.472-0.07-0.698V69.94l9.439-14.322
		c0.377-0.572,0.578-1.242,0.578-1.926V28.998c0-1.933-1.567-3.5-3.5-3.5s-3.5,1.567-3.5,3.5v23.645l-5.439,8.253H95.021
		l-5.849-6.174l1.615-6.729c0.451-1.88-0.707-3.769-2.586-4.22c-1.882-0.452-3.77,0.707-4.22,2.586l-2.058,8.575
		c-0.276,1.151,0.048,2.364,0.862,3.224L94.243,70.252z"/>
</g>
</svg>
