<?xml version="1.0" encoding="iso-8859-1"?>
<!-- Generator: Adobe Illustrator 17.1.0, SVG Export Plug-In . SVG Version: 6.00 Build 0)  -->
<!DOCTYPE svg PUBLIC "-//W3C//DTD SVG 1.1//EN" "http://www.w3.org/Graphics/SVG/1.1/DTD/svg11.dtd">
<svg version="1.1" id="Capa_1" xmlns="http://www.w3.org/2000/svg" xmlns:xlink="http://www.w3.org/1999/xlink" x="0px" y="0px"
	 viewBox="0 0 200 200" style="enable-background:new 0 0 200 200;" xml:space="preserve">
<g>
	<path d="M71.543,127.928c-5.981-2.647-10.628-6.236-13.812-10.668c-0.924-1.286-1.695-2.602-2.403-3.91l-28.169,63.637
		c-0.672,1.519,0.032,2.248,1.573,1.628l23.836-9.587c1.541-0.62,3.259,0.14,3.836,1.698l8.929,24.091
		c0.577,1.558,1.59,1.589,2.263,0.07l28.205-63.719c-2.166,0.195-4.214,0.298-6.168,0.298
		C82.84,131.466,76.922,130.309,71.543,127.928z"/>
	<path d="M143.083,113.235c-7.091,5.136-13.756,9.825-20.142,14.172c-3.028,2.061-9.125,5.518-15.944,5.518
		c-1.298,0-2.54-0.133-3.728-0.383l27.603,62.358c0.672,1.519,1.686,1.488,2.263-0.07l8.929-24.091
		c0.577-1.558,2.295-2.318,3.836-1.698l23.836,9.587c1.541,0.62,2.246-0.109,1.573-1.628L143.083,113.235z"/>
	<path d="M120.127,123.273c7.021-4.779,13.982-9.717,20.881-14.725c4.226-3.067,8.434-6.155,12.604-9.266
		c8.105-6.048,15.505-14.574,14.072-25.383c-0.629-4.745-3.477-8.509-6.378-12.144c-1.562-1.957-3.041-3.869-4.26-6.06
		c-1.882-3.38-1.237-7.85-1.222-11.555c0.046-11.447-8.371-17.81-17.104-23.566c-10.19-6.717-21.319-12.301-33.375-14.62
		c-3.06-0.589-6.184-0.882-9.303-0.882c-13.749,0-27.416,5.699-35.251,16.913C39.996,25.352,30.996,44.882,30.205,65.23
		c-0.728,18.718,7.288,41.73,27.283,43.242c0.323,0.024,0.641,0.06,0.97,0.073c1.024,1.988,2.034,3.992,3.333,5.799
		c2.947,4.101,7.212,6.994,11.775,9.013c5.161,2.284,10.583,3.11,16.067,3.11c2.827,0,5.671-0.227,8.505-0.579
		c0.604-0.075,1.208-0.149,1.812-0.235c0.127,0.099,0.26,0.184,0.39,0.276c1.982,1.402,4.268,1.997,6.656,1.997
		C111.491,127.924,116.333,125.855,120.127,123.273z M99.234,112.786c-1.628,0-3.235-0.086-4.82-0.25
		c-12.564-1.299-23.656-7.623-31.236-16.918c-6.534-8.012-10.461-18.23-10.461-29.35c0-25.65,20.868-46.518,46.518-46.518
		c25.65,0,46.518,20.868,46.518,46.518c0,11.122-3.928,21.342-10.464,29.354c-7.582,9.294-18.674,15.616-31.239,16.914
		C102.465,112.701,100.859,112.786,99.234,112.786z"/>
	<path d="M140.751,66.269c0-22.93-18.588-41.518-41.518-41.518c-22.93,0-41.518,18.588-41.518,41.518
		c0,9.187,2.99,17.674,8.042,24.551c6.457,8.789,16.288,14.939,27.587,16.544c1.925,0.273,3.889,0.423,5.889,0.423
		c2.002,0,3.969-0.15,5.895-0.424c11.293-1.606,21.12-7.752,27.575-16.535C137.759,83.949,140.751,75.46,140.751,66.269z"/>
</g>
</svg>
