<?xml version="1.0" encoding="iso-8859-1"?>
<!-- Generator: Adobe Illustrator 17.1.0, SVG Export Plug-In . SVG Version: 6.00 Build 0)  -->
<!DOCTYPE svg PUBLIC "-//W3C//DTD SVG 1.1//EN" "http://www.w3.org/Graphics/SVG/1.1/DTD/svg11.dtd">
<svg version="1.1" id="Capa_1" xmlns="http://www.w3.org/2000/svg" xmlns:xlink="http://www.w3.org/1999/xlink" x="0px" y="0px"
	 viewBox="0 0 200 200" style="enable-background:new 0 0 200 200;" xml:space="preserve">
<g>
	<path d="M84.069,129.4c0.72-0.606,1.4-1.178,1.903-1.642l8.038-7.762l0.024-0.023l0.025-0.022c0.495-0.447,1.026-0.724,1.453-0.947
		c0.219-0.114,0.467-0.244,0.57-0.332c1.631-1.401,3.594-3.165,5.325-4.72l0.112-0.101l0.038-0.034l0.04-0.032l1.3-1.054
		l1.152-0.934c0.474-0.384,1.091-0.929,1.687-1.48c-0.582-0.482-1.35-0.711-1.897-1.181c-1.684-1.447-3.734-3.29-5.47-4.85
		c-0.817-0.662-1.634-1.325-2.452-1.988c-0.972-0.788-2.462-2.159-3.326-3.065c-1.115-1.168-2.229-2.337-3.341-3.503
		c-2.203-2.222-4.689-3.957-6.969-6.033c-0.925-0.842-0.898-2.4,0.326-2.66c1.59-0.338,3.553-0.015,4.922-0.017
		c6.398-0.019,11.225,1.498,16.968-1.609c1.441-0.778,4.877-2.025,4.924-4.801c0.009-0.456-0.259-0.953-0.665-1.334
		c-0.617-0.579-2.376-0.586-3.625-0.523c-0.522,0.026-1.044,0.052-1.566,0.079c-1.25,0.063-3.276-0.01-4.456-0.429
		c-1.616-0.573-3.3-1.394-4.849-1.5c-3.735-0.256-7.602-0.229-11.423-0.81c-3.143-0.478-6.482-1.888-9.42-1.573
		c-2.571,0.271-5.214,0.972-7.734,1.516c-3.41,0.509-6.822,1.016-10.232,1.525c-3.775,0.514-5.102,1.982-9.686,0.601
		c-2.063-0.62-5.383-2.073-7.378-3.719c-1.52-1.25-3.779-2.761-5.771-3.548c-2.179-0.86-4.128-2.502-6.524-3.448
		c-1.713-0.678-6.113-3.544-8.744-5.265c-1.047-0.685-2.824-0.936-3.451,0.147c-3.645,6.288-10.838,30.809-9.2,31.574
		c2.92,1.069,5.843,2.14,8.765,3.212c2.276,0.803,4.151,2.46,6.618,3.426c2.212,0.868,4.139,2.02,6.208,2.797
		c2.122,0.799,3.86,2.546,5.125,3.714c3.718,3.434,6.568,6.722,10.068,10.125c3.687,3.579,9.174,7.872,14.619,9.92
		c2.006,0.756,3.318,2.092,5.103,2.692c1.896,0.638,3.655,1.118,5.452,1.616c1.206,0.334,3.106,1.03,4.248,1.541
		c2.276,1.018,4.553,2.036,6.829,3.054C79.191,133.51,81.924,131.206,84.069,129.4z M88.66,110.94
		c0.035-0.022,0.374,0.142,0.757,0.368c0.383,0.225,1.642,0.657,2.616,1.442c0.723,0.583,1.287,1.554,2.009,2.137
		c0.974,0.786,0.883,0.92-0.186,0.269c-1.24-0.754-2.426-0.52-3.52-1.299c-1.019-0.726-1.79-2.482-1.771-2.623
		C88.583,111.094,88.626,110.962,88.66,110.94z"/>
	<path d="M182.088,75.022c-0.598,0-1.225,0.199-1.72,0.544c-1.646,1.148-3.596,2.283-5.234,2.931
		c-2.396,0.947-4.346,2.589-6.524,3.448c-1.992,0.787-4.25,2.299-5.771,3.549c-1.996,1.646-5.315,3.099-7.378,3.719
		c-1.394,0.42-2.486,0.576-3.438,0.576c-2.179,0-3.621-0.82-6.248-1.178c-3.41-0.509-6.822-1.016-10.232-1.525
		c-2.52-0.544-5.163-1.245-7.734-1.516c-0.29-0.031-0.584-0.045-0.881-0.045c-2.714,0-5.706,1.187-8.539,1.619
		c-3.821,0.581-7.688,0.554-11.423,0.81c-1.549,0.106-3.233,0.927-4.849,1.5c-0.943,0.335-2.429,0.448-3.625,0.448
		c-0.3,0-0.581-0.007-0.831-0.02c-0.522-0.026-1.043-0.052-1.565-0.079c-0.301-0.015-0.632-0.026-0.969-0.026
		c-1.062,0-2.188,0.11-2.657,0.55c-0.406,0.381-0.674,0.879-0.665,1.334c0.047,2.776,3.483,4.023,4.924,4.801
		c2.915,1.577,5.594,1.963,8.362,1.963c2.652,0,5.385-0.354,8.487-0.354c0.039,0,0.08,0,0.119,0c0.005,0,0.01,0,0.016,0
		c0.896,0,2.044-0.137,3.174-0.137c0.595,0,1.186,0.038,1.733,0.154c1.224,0.26,1.252,1.818,0.326,2.66
		c-2.281,2.075-4.767,3.811-6.969,6.033c-1.112,1.167-2.227,2.335-3.341,3.503c-0.389,0.408-0.907,0.911-1.446,1.412
		c-0.657,0.611-1.346,1.22-1.88,1.653c-0.818,0.663-1.635,1.326-2.452,1.988c-1.737,1.56-3.786,3.403-5.47,4.85
		c-0.574,0.493-1.396,0.713-1.986,1.246c-2.682,2.588-5.36,5.175-8.038,7.761c-2.188,2.02-6.184,4.883-7.849,7.713
		c-0.9,1.528-1.122,3.047-0.009,4.417c0.789,0.971,1.76,1.43,1.77,1.446c0.009,0.016-0.804,0.627-1.81,1.37
		c-2.071,1.529-3.522,2.83-3.163,5.249c0.332,2.242,2.137,3.632,4.003,3.632c0.375,0,0.753-0.056,1.121-0.173
		c1.188-0.376,1.863-1.248,1.893-1.248c0,0,0,0,0,0c0.025,0.007-0.036,0.413-0.056,0.915c-0.012,0.297,0.004,0.6,0.072,0.904
		c0.379,1.644,1.487,2.688,2.734,3.095c0.245,0.08,0.515,0.114,0.796,0.114c1.081,0,2.333-0.506,3.034-0.85
		c0.533-0.262,1.066-0.523,1.6-0.784c1.375-0.533,2.807-1.204,4.236-1.952c1.091-0.571,1.967-1.059,2.004-1.059
		c0.001,0,0.001,0,0.001,0c0.009,0.016-0.094,1.116,0.484,2.226c0.532,1.022,1.47,1.367,2.583,1.367
		c1.582,0,3.517-0.699,5.136-1.149c3.783-1.049,8.078-3.111,12.03-4.751c1.156-0.48,2.765-1.195,3.581-1.632
		c0.493-0.264,0.986-0.528,1.479-0.791c2.43-1.087,4.861-2.174,7.291-3.261c1.142-0.511,3.042-1.207,4.248-1.541
		c1.797-0.498,3.557-0.978,5.452-1.616c1.785-0.601,3.097-1.937,5.103-2.692c5.445-2.048,10.932-6.341,14.619-9.92
		c3.5-3.402,6.35-6.69,10.068-10.125c1.266-1.169,3.003-2.915,5.125-3.714c2.069-0.777,3.996-1.929,6.208-2.797
		c2.467-0.965,4.342-2.623,6.618-3.425c2.922-1.073,6.235-3.481,8.166-4.383c3.351-1.666-7.892-22.102-12.208-28.009
		C183.34,75.251,182.73,75.022,182.088,75.022z"/>
</g>
</svg>
