<?xml version="1.0" encoding="iso-8859-1"?>
<!-- Generator: Adobe Illustrator 17.1.0, SVG Export Plug-In . SVG Version: 6.00 Build 0)  -->
<!DOCTYPE svg PUBLIC "-//W3C//DTD SVG 1.1//EN" "http://www.w3.org/Graphics/SVG/1.1/DTD/svg11.dtd">
<svg version="1.1" id="Capa_1" xmlns="http://www.w3.org/2000/svg" xmlns:xlink="http://www.w3.org/1999/xlink" x="0px" y="0px"
	 viewBox="0 0 200 200" style="enable-background:new 0 0 200 200;" xml:space="preserve">
<g>
	<path d="M143.365,171.773h-3.503v-21.118c0-1.71-1.269-3.095-2.834-3.095H62.971c-1.565,0-2.834,1.386-2.834,3.095v21.118h-3.052
		c-1.823,0-3.302,0.556-3.302,1.242v13.748c0,0.686,1.478,1.242,3.302,1.242h5.886h74.058h6.336c1.823,0,3.302-0.556,3.302-1.242
		v-13.748C146.667,172.329,145.188,171.773,143.365,171.773z"/>
	<circle cx="97.775" cy="25.066" r="14.642"/>
	<path d="M106.686,145.929c3.082,0,5.581-2.5,5.581-5.581V93.856c0-0.378-0.04-0.746-0.111-1.102l0.042-18.986
		c-2.85-1.818-5.641-3.763-8.364-5.663c-1.584-1.106-3.214-2.237-4.835-3.335c-1.621,1.097-3.251,2.229-4.835,3.335
		c-2.757,1.925-5.585,3.897-8.472,5.734l-0.035,18.915c-0.072,0.357-0.111,0.725-0.111,1.102v46.492c0,3.082,2.5,5.581,5.581,5.581
		c3.082,0,5.581-2.5,5.581-5.581v-38.287h2.198h2.198v38.287C101.104,143.43,103.604,145.929,106.686,145.929z"/>
	<path d="M71.876,72.599c0.856,2.682,2.959,3.692,5.241,3.692c1.716,0,3.532-0.57,4.996-1.43c1.207-0.708,2.398-1.454,3.581-2.216
		c4.208-2.709,8.295-5.682,12.422-8.487c-1.852-1.297-2.594-3.445-1.927-5.642c0.324-1.067,0.941-1.972,1.72-2.62
		c-0.203-0.041-0.411-0.064-0.624-0.064c-0.66,0-1.364,0.207-2.077,0.684c-3.113,2.084-6.226,4.167-9.338,6.251
		c-0.053,0.035-0.105,0.07-0.158,0.106c-1.504,1.007-3.008,2.013-4.511,3.02c-0.421,0.282-0.843,0.564-1.265,0.846
		c1.119-4.335,3.25-8.547,5.792-12.33c0.007-0.011,0.014-0.022,0.022-0.033v0.906v0.927c-0.009,0.013-0.017,0.027-0.025,0.04
		l-0.01,5.417l4.832-3.234l4.105-2.748c0.845-0.566,1.731-0.853,2.633-0.853c0.595,0,1.172,0.147,1.714,0.392
		c0.542-0.244,1.119-0.392,1.714-0.392c0.901,0,1.787,0.287,2.633,0.853l4.03,2.698l4.848,3.245l0.008-3.654l0.016,0.006v-1.77
		v-0.927v-0.906c2.552,3.791,4.692,8.015,5.813,12.362c-0.422-0.282-0.843-0.564-1.265-0.846c-1.525-1.021-3.051-2.042-4.575-3.063
		c-0.031-0.021-0.062-0.042-0.094-0.063c-3.113-2.084-6.226-4.167-9.338-6.251c-0.713-0.477-1.417-0.684-2.077-0.684
		c-0.213,0-0.421,0.023-0.624,0.064c-0.205,0.042-0.403,0.104-0.594,0.183c-0.171,0.071-0.338,0.152-0.496,0.25
		c-2.211,1.356-3.11,5.146-0.233,7.071c0.078,0.052,0.156,0.106,0.233,0.158c0.149,0.1,0.297,0.202,0.445,0.302
		c0.146,0.099,0.292,0.198,0.438,0.297c4.093,2.782,8.146,5.729,12.318,8.42c1.218,0.785,2.443,1.553,3.685,2.282
		c1.464,0.859,3.281,1.43,4.996,1.43c2.282,0,4.385-1.01,5.241-3.692c1.508-4.726-1.008-10.361-2.927-14.642
		c-2.276-5.078-5.215-9.595-8.785-13.854c-0.654-0.78-1.397-1.167-2.144-1.284c-0.006-0.001-0.012-0.001-0.018-0.002v-0.051H111.8
		h-1.883h-0.911h-8.781h-1.318h-1.132h-8.781h-0.912H86.2h-0.449v0.051c0,0,0,0,0,0c-0.753,0.112-1.503,0.499-2.162,1.286
		c-3.57,4.259-6.51,8.776-8.785,13.854C72.884,62.238,70.368,67.872,71.876,72.599z"/>
</g>
</svg>
