<?xml version="1.0" encoding="utf-8"?>
<!-- Generator: Adobe Illustrator 16.0.4, SVG Export Plug-In . SVG Version: 6.00 Build 0)  -->
<!DOCTYPE svg PUBLIC "-//W3C//DTD SVG 1.1//EN" "http://www.w3.org/Graphics/SVG/1.1/DTD/svg11.dtd">
<svg version="1.1" id="Capa_1" xmlns="http://www.w3.org/2000/svg" xmlns:xlink="http://www.w3.org/1999/xlink" x="0px" y="0px"
	 width="144px" height="144px" viewBox="0 0 144 144" enable-background="new 0 0 144 144" xml:space="preserve">
<path d="M134.56,52.275c-4.269,0-7.741,3.473-7.741,7.741c0,1.893,0.684,3.626,1.815,4.973L113.17,80.452
	c-2.754,2.754-4.557,1.858-4.027-2l0.061-0.445c0.529-3.858-1.389-4.876-4.286-2.273l-0.532,0.479
	c-2.898,2.603-5.828,1.609-6.543-2.219l-5.605-29.964c-0.717-3.828-2.129-3.886-3.156-0.129l-7.023,25.689
	c-1.026,3.756-2.296,3.676-2.835-0.181L73.629,29.39c3.488-0.751,6.111-3.856,6.111-7.566c0-4.268-3.473-7.741-7.741-7.741
	c-4.269,0-7.742,3.473-7.742,7.741c0,3.709,2.625,6.815,6.112,7.566l-5.592,40.019c-0.539,3.857-1.809,3.938-2.835,0.181
	L54.919,43.9c-1.027-3.757-2.44-3.699-3.156,0.129l-5.605,29.964c-0.716,3.828-3.645,4.821-6.543,2.219l-0.533-0.479
	c-2.897-2.603-4.816-1.585-4.287,2.273l0.061,0.445c0.529,3.858-1.274,4.753-4.028,2L15.366,64.989
	c1.132-1.347,1.816-3.08,1.816-4.973c0-4.269-3.473-7.741-7.741-7.741c-4.269,0-7.742,3.473-7.742,7.741
	c0,4.269,3.473,7.742,7.742,7.742c0.478,0,0.942-0.05,1.396-0.132l10.037,33.949c1.104,3.734,3.534,9.637,7.161,11.055
	c8.059,3.153,24.72,5.318,43.964,5.318c19.245,0,35.905-2.165,43.965-5.318c3.626-1.418,6.057-7.32,7.161-11.055l10.037-33.949
	c0.453,0.083,0.918,0.132,1.396,0.132c4.268,0,7.74-3.473,7.74-7.742C142.299,55.748,138.826,52.275,134.56,52.275z M12.802,62.425
	c-0.685,0.954-1.761,1.605-2.994,1.714c-0.121,0.011-0.243,0.019-0.367,0.019c-2.284,0-4.142-1.857-4.142-4.142
	c0-2.284,1.858-4.141,4.142-4.141c2.283,0,4.141,1.857,4.141,4.141C13.582,60.916,13.291,61.747,12.802,62.425z M67.858,21.825
	c0-2.283,1.858-4.141,4.142-4.141c2.283,0,4.142,1.857,4.142,4.141c0,1.892-1.276,3.488-3.013,3.981
	c-0.359,0.102-0.737,0.16-1.129,0.16s-0.769-0.058-1.128-0.16C69.135,25.312,67.858,23.717,67.858,21.825z M72,111.121L56.64,95.76
	L72,80.399l15.36,15.36L72,111.121z M134.56,64.158c-0.124,0-0.247-0.008-0.368-0.019c-1.232-0.109-2.309-0.76-2.994-1.714
	c-0.488-0.68-0.779-1.51-0.779-2.409c0-2.284,1.857-4.141,4.142-4.141c2.282,0,4.141,1.857,4.141,4.141
	C138.7,62.3,136.842,64.158,134.56,64.158z M61.735,95.762l10.27-10.269l10.269,10.269l-10.269,10.27L61.735,95.762z"/>
</svg>
