<?xml version="1.0" encoding="iso-8859-1"?>
<!-- Generator: Adobe Illustrator 17.1.0, SVG Export Plug-In . SVG Version: 6.00 Build 0)  -->
<!DOCTYPE svg PUBLIC "-//W3C//DTD SVG 1.1//EN" "http://www.w3.org/Graphics/SVG/1.1/DTD/svg11.dtd">
<svg version="1.1" id="Capa_1" xmlns="http://www.w3.org/2000/svg" xmlns:xlink="http://www.w3.org/1999/xlink" x="0px" y="0px"
	 viewBox="0 0 200 200" style="enable-background:new 0 0 200 200;" xml:space="preserve">
<g>
	<path d="M179.875,152.577c-14.839,12.381-49.369,17.923-77.009,17.923c-27.638,0-62.168-5.541-77.008-17.921
		c-3.182-2.655-7.912-2.226-10.563,0.954c-2.653,3.181-2.227,7.91,0.954,10.563c15.826,13.202,49.016,21.403,86.617,21.403
		c37.604,0,70.795-8.202,86.618-21.405c3.181-2.654,3.607-7.384,0.954-10.563C187.784,150.35,183.054,149.924,179.875,152.577z"/>
	<path d="M193.683,70.641c-1.765-0.989-3.947-0.822-5.534,0.425c-0.129,0.102-13.096,10.119-29.504,10.119
		c-21.299,0-38.495-16.646-51.111-49.477c-0.742-1.932-2.598-3.206-4.667-3.206s-3.925,1.274-4.667,3.206
		c-12.615,32.83-29.812,49.477-51.11,49.477c-16.289,0-29.382-10.024-29.503-10.119c-1.591-1.246-3.772-1.414-5.535-0.425
		c-1.761,0.99-2.754,2.942-2.516,4.948l7.728,65.17c0.148,1.257,0.769,2.41,1.734,3.228c15.191,12.858,47.329,20.846,83.87,20.846
		c36.54,0,68.677-7.987,83.869-20.846c0.966-0.817,1.586-1.971,1.734-3.228l7.728-65.17
		C196.437,73.583,195.443,71.631,193.683,70.641z M106,148.167l-8.507-12.833l-6.629-10L106,102.5l15.136,22.833l-6.629,10
		L106,148.167z M38.581,125.333c0-4.932,3.526-8.93,7.876-8.93s7.876,3.998,7.876,8.93s-3.526,8.93-7.876,8.93
		S38.581,130.265,38.581,125.333z M164.306,134.289c-4.362,0-7.899-4.009-7.899-8.955s3.537-8.955,7.899-8.955
		s7.899,4.009,7.899,8.955S168.668,134.289,164.306,134.289z"/>
</g>
</svg>
