<?xml version="1.0" encoding="iso-8859-1"?>
<!-- Generator: Adobe Illustrator 17.1.0, SVG Export Plug-In . SVG Version: 6.00 Build 0)  -->
<!DOCTYPE svg PUBLIC "-//W3C//DTD SVG 1.1//EN" "http://www.w3.org/Graphics/SVG/1.1/DTD/svg11.dtd">
<svg version="1.1" id="Capa_1" xmlns="http://www.w3.org/2000/svg" xmlns:xlink="http://www.w3.org/1999/xlink" x="0px" y="0px"
	 viewBox="0 0 200 200" style="enable-background:new 0 0 200 200;" xml:space="preserve">
<g>
	<path d="M135.011,30.089c0.98-2.269,1.959-4.537,2.939-6.806c1.183-2.74,6.056-1.547,4.856,1.23
		c-1.204,2.787-2.407,5.574-3.611,8.361c-0.038,0.087-0.088,0.158-0.133,0.237c-0.267,0.877-1.035,1.606-2.322,1.606H53.984
		c7.096,15.003,12.41,38.07-3.237,62.126c-26.728,41.092,13.385,68.93,13.385,68.93h53.607l4.19-11.259
		c-4.777-5.295-7.69-12.302-7.69-19.978c0-16.463,13.394-29.857,29.857-29.857c3.38,0,6.626,0.573,9.658,1.612
		c1.52-4.823,2.878-7.794,2.878-7.794c14.072-34.374,8.638-60.013,3.976-72.512c-1.803-4.836-8.485-8.492-14.048-8.492H44.955
		c-1.039-0.205-2.012-0.095-2.872,0.241c-1.786,3.153-3.572,6.305-5.358,9.458c0.032,1.026,0.378,2.058,1.043,2.898H135.011z"/>
	<path d="M158.643,160.595c-2.734,1.532-5.732,2.646-8.908,3.256c-0.925,0.178-1.865,0.314-2.818,0.404
		c-0.895,0.084-1.801,0.131-2.717,0.134c-0.035,0-0.069,0.003-0.104,0.003s-0.069-0.003-0.104-0.003
		c-6.805-0.023-13.078-2.338-18.094-6.208l-2.825,7.59l-6.981,18.762c-0.223,0.504-0.1,0.809,0.267,0.809
		c0.117,0,0.259-0.031,0.422-0.097l10.431-4.195c0.16-0.064,0.323-0.094,0.484-0.094c0.518,0,1.002,0.317,1.195,0.838l3.908,10.543
		c0.128,0.346,0.306,0.52,0.488,0.52c0.176,0,0.357-0.163,0.502-0.49l9.896-26.595l0.411-1.105l0.411,1.105l0.922,2.479l1.334,3.585
		l7.639,20.531c0.294,0.665,0.738,0.651,0.99-0.031l3.908-10.543c0.252-0.682,1.004-1.014,1.679-0.743l10.431,4.195
		c0.674,0.271,0.982-0.048,0.688-0.712l-9.806-26.352C161.14,159.072,159.921,159.879,158.643,160.595z"/>
	<path d="M152.377,111.096c-2.591-0.915-5.376-1.418-8.281-1.418c-13.729,0-24.857,11.129-24.857,24.857
		c0,5.436,1.75,10.46,4.709,14.551c0.568,0.785,1.177,1.537,1.831,2.249c0.617,0.672,1.272,1.306,1.958,1.907
		c3.903,3.416,8.882,5.628,14.364,6.064c0.659,0.052,1.323,0.087,1.995,0.087s1.336-0.034,1.995-0.087
		c0.952-0.076,1.89-0.202,2.809-0.382c1.009-0.198,1.995-0.458,2.956-0.774c1.393-0.457,2.732-1.03,4.004-1.715
		c1.654-0.89,3.192-1.966,4.595-3.193c5.206-4.556,8.498-11.245,8.498-18.707C168.954,123.711,162.033,114.508,152.377,111.096z
		 M157.94,146.481c-0.832,0.962-1.762,1.831-2.774,2.603c-0.688,0.525-1.407,1.011-2.167,1.436c-0.388,0.217-0.79,0.41-1.194,0.599
		c-0.983,0.459-2.012,0.83-3.08,1.109c-1.481,0.388-3.027,0.616-4.629,0.616s-3.147-0.228-4.629-0.616
		c-3.634-0.952-6.828-2.985-9.214-5.747c-0.654-0.757-1.241-1.569-1.766-2.426c-0.598-0.977-1.105-2.012-1.514-3.098
		c-0.754-2.002-1.186-4.16-1.186-6.423c0-10.095,8.213-18.308,18.309-18.308c2.423,0,4.733,0.484,6.852,1.343
		c6.708,2.719,11.457,9.294,11.457,16.966C162.405,139.101,160.714,143.271,157.94,146.481z"/>
	<path d="M150.17,122.703c-1.822-0.937-3.883-1.476-6.074-1.476c-7.35,0-13.309,5.958-13.309,13.308
		c0,0.244,0.023,0.482,0.037,0.722c0.05,0.93,0.193,1.832,0.425,2.702c0.266,1.001,0.634,1.96,1.113,2.853
		c1.342,2.503,3.466,4.516,6.041,5.738c1.728,0.821,3.653,1.293,5.694,1.293s3.966-0.473,5.694-1.293
		c0.562-0.267,1.107-0.564,1.623-0.904c0.204-0.134,0.397-0.281,0.592-0.425c0.671-0.497,1.292-1.054,1.857-1.666
		c0.764-0.827,1.432-1.742,1.968-2.742c1.002-1.87,1.574-4.006,1.574-6.277C157.405,129.375,154.463,124.911,150.17,122.703z"/>
</g>
</svg>
