<?xml version="1.0" encoding="iso-8859-1"?>
<!-- Generator: Adobe Illustrator 17.1.0, SVG Export Plug-In . SVG Version: 6.00 Build 0)  -->
<!DOCTYPE svg PUBLIC "-//W3C//DTD SVG 1.1//EN" "http://www.w3.org/Graphics/SVG/1.1/DTD/svg11.dtd">
<svg version="1.1" id="Capa_1" xmlns="http://www.w3.org/2000/svg" xmlns:xlink="http://www.w3.org/1999/xlink" x="0px" y="0px"
	 viewBox="0 0 200 200" style="enable-background:new 0 0 200 200;" xml:space="preserve">
<g>
	<path d="M37.584,169.354l23.836-9.587c1.541-0.62,3.259,0.14,3.836,1.698l8.929,24.091c0.577,1.558,1.59,1.589,2.263,0.07
		l21.761-49.16l-1.504-1.317L85.144,125.02l-15.078,2.998l-4.304,0.856l-1.407-4.157l-4.033-11.913l-24.311,54.922
		C35.338,169.245,36.043,169.974,37.584,169.354z"/>
	<path d="M135.644,124.717l-1.407,4.157l-4.304-0.856l-15.077-2.999l-11.561,10.129l-1.504,1.318l21.761,49.16
		c0.672,1.519,1.686,1.488,2.263-0.07l8.929-24.091c0.577-1.558,2.295-2.318,3.836-1.698l23.836,9.587
		c1.541,0.62,2.246-0.109,1.573-1.628l-24.312-54.923L135.644,124.717z"/>
	<path d="M49.951,83l-3.479,17.494l16.785,5.682l0.114,0.039l5.72,16.899l17.494-3.479l12.668,11.099l0.746,0.654l0.746-0.654
		l12.668-11.099l17.494,3.479l5.721-16.899l0.115-0.039l16.784-5.682l-3.479-17.494l11.752-13.415l-11.752-13.415l3.479-17.494
		l-16.899-5.721l-5.72-16.899l-17.494,3.479L100,7.784L86.585,19.537l-17.494-3.479l-5.721,16.899l-16.899,5.721l3.479,17.494
		L38.198,69.586L49.951,83z M65.112,54.385l-4.027-7.276l8.315-0.144l7.843-0.136l0.136-7.843l0.144-8.316l7.277,4.027l6.868,3.801
		l4.049-6.724L100,24.662l4.283,7.113l4.049,6.724l6.869-3.801l7.276-4.027l0.144,8.315l0.136,7.843l7.843,0.136l8.315,0.144
		l-4.027,7.277l-3.801,6.868l6.724,4.049l7.113,4.283l-7.113,4.283l-6.724,4.049l3.801,6.869l4.027,7.276l-8.315,0.144l-0.039,0.001
		l-7.804,0.135l-0.136,7.843l-0.144,8.316l-7.277-4.027l-2.273-1.258l-4.595-2.543l-4.049,6.724L100,114.509l-4.283-7.113
		l-4.049-6.724l-4.595,2.543l-2.274,1.258l-7.276,4.027l-0.144-8.315l-0.136-7.843l-7.803-0.135l-0.04-0.001l-8.315-0.144
		l4.027-7.277l3.801-6.868l-6.724-4.049l-7.113-4.283l7.113-4.283l6.724-4.049L65.112,54.385z"/>
	<polygon points="69.487,87.208 71.636,87.245 82.159,87.427 82.378,100.099 86.031,98.077 92.718,94.377 93.464,93.964 
		93.504,94.029 100,104.817 106.496,94.029 106.536,93.964 107.282,94.377 113.969,98.077 117.622,100.099 117.841,87.427 
		128.364,87.245 130.513,87.208 124.378,76.122 135.231,69.586 124.378,63.05 130.513,51.964 117.841,51.745 117.622,39.073 
		106.536,45.208 100,34.354 93.464,45.208 82.378,39.072 82.159,51.744 69.487,51.964 75.622,63.05 64.769,69.586 75.622,76.122 	
		"/>
</g>
</svg>
