<?xml version="1.0" encoding="iso-8859-1"?>
<!-- Generator: Adobe Illustrator 17.1.0, SVG Export Plug-In . SVG Version: 6.00 Build 0)  -->
<!DOCTYPE svg PUBLIC "-//W3C//DTD SVG 1.1//EN" "http://www.w3.org/Graphics/SVG/1.1/DTD/svg11.dtd">
<svg version="1.1" id="Capa_1" xmlns="http://www.w3.org/2000/svg" xmlns:xlink="http://www.w3.org/1999/xlink" x="0px" y="0px"
	 viewBox="0 0 200 200" style="enable-background:new 0 0 200 200;" xml:space="preserve">
<g>
	<path d="M153.662,75.13c-4.314,0-7.824,3.51-7.824,7.825v38.084v0.774v6.946l-0.748,1.134l-0.238,0.361l-1.44,2.185l-0.353,0.536
		l-2.765,4.196l-0.353,0.536l-1.793,2.721l-0.313,0.475c-0.364-0.066-0.738-0.106-1.121-0.106h-1.667H134.8h-2.28h-1.631h-1.502
		h-3.386c-1.734-0.961-4.277-2.046-8.008-3.237c-0.2-0.064-0.406-0.095-0.608-0.095c-0.641,0-1.259,0.309-1.641,0.856
		c-0.101,0.145-0.734,1.059-1.64,2.476H93.89c-0.906-1.417-1.539-2.331-1.64-2.476c-0.381-0.546-0.999-0.856-1.641-0.856
		c-0.203,0-0.407,0.031-0.608,0.095c-3.731,1.191-6.275,2.276-8.008,3.237h-2.944h-1.502H75.39h-1.754h-0.247h-2.11
		c-0.409,0-0.808,0.042-1.195,0.118l-0.321-0.487l-1.793-2.721l-0.353-0.536l-2.766-4.196l-0.353-0.536l-1.44-2.185l-0.238-0.361
		l-0.747-1.134v-6.947v-0.774V82.955c0-4.314-3.51-7.825-7.825-7.825s-7.825,3.51-7.825,7.825v48.151
		c0,1.536,0.447,3.025,1.292,4.306l3.253,4.936l0.238,0.361l2.881,4.371l0.238,0.361l1.44,2.185l0.353,0.536l2.766,4.196
		l0.353,0.536l1.793,2.721l3.119,4.732l0.882,1.339v25.9c0,2.476,1.451,4.613,3.543,5.624c0.82,0.396,1.735,0.625,2.705,0.625h2.357
		h3.911h5.062h2.911h5.062h3.417h5.062h3.997h2.029h4.288h5.062h3.417h5.062h2.911h5.062h3.911h1.914
		c1.149,0,2.223-0.317,3.149-0.86c1.851-1.086,3.1-3.092,3.1-5.389v-26.025l0.8-1.214l3.119-4.732l1.793-2.721l0.353-0.536
		l2.766-4.196l0.353-0.536l1.44-2.185l0.238-0.361l2.881-4.371l0.238-0.361l3.253-4.936c0.845-1.281,1.291-2.77,1.291-4.307V82.955
		C161.486,78.64,157.977,75.13,153.662,75.13z M155.588,138.768l-2.881,4.371l-0.238,0.361l-6.501-11.305l0.238-0.361l1.632-2.476
		v-4.068v-0.774l7.988,13.891L155.588,138.768z M150.677,146.221l-2.766,4.196l-0.353,0.536l-6.501-11.305l0.353-0.536l2.765-4.196
		l0.353-0.536l6.501,11.305L150.677,146.221z M134.8,191.833v-47.072v-1.964h1.786h0.127c0.341,0,0.668,0.051,0.986,0.127
		c0.338,0.081,0.656,0.209,0.958,0.365c0.457,0.238,0.864,0.55,1.205,0.93v9.345v1.277v3.866v3.865v27.839
		c-0.779,0.866-1.895,1.422-3.149,1.422H134.8z M103.108,191.833c0.056-10.854-0.606-24.271-2.855-26.52
		c-0.266-0.266-0.336-0.64-0.24-0.978c0.293,0.158,0.618,0.246,0.948,0.246c0.277,0,0.557-0.058,0.82-0.176
		c0.075-0.034,0.134-0.088,0.203-0.129c1.299,1.761,2.076,5.851,2.53,10.609c0.76-6.233,1.523-10.38,1.538-10.462
		c0.007-0.036,0.029-0.063,0.039-0.097c0.043,0.024,0.078,0.058,0.124,0.079c0.263,0.118,0.542,0.176,0.82,0.176
		c0.332,0,0.658-0.088,0.952-0.248c0.042,0.145,0.061,0.297,0.032,0.456c-0.027,0.142-2.336,12.698-2.897,27.044H103.108z
		 M60,150.416l-2.766-4.196l-0.353-0.536l6.501-11.305l0.353,0.536l2.765,4.196l0.353,0.536l-6.501,11.305L60,150.416z
		 M55.204,143.139l-2.881-4.371l-0.238-0.361l7.989-13.891v0.774v4.069l1.631,2.475l0.238,0.361l-6.501,11.305L55.204,143.139z
		 M65.031,148.656v9.393l-2.885-4.377L65.031,148.656z M68.574,160.61v-3.866v-3.866v-0.229v-8.853
		c0.217-0.181,0.451-0.339,0.702-0.475c0.298-0.161,0.614-0.29,0.949-0.377c0.339-0.087,0.688-0.148,1.054-0.148h0.045h2.312v1.05
		v47.986h-2.357c-1.033,0-1.968-0.385-2.705-1V160.61z M77.547,142.796h1.701c-0.987,1.062-0.948,1.847-0.925,2.3
		c0.107,2.07,2.207,2.812,3.411,3.108l0.873,0.774l0.002,0.006v42.848h-5.062V142.796z M86.902,140.796
		c2.012-0.79,3.707-1.331,3.707-1.331s0.341,0.49,0.894,1.331c0.192,0.292,0.409,0.627,0.648,1c0.197,0.308,0.409,0.643,0.632,1
		c3.035,4.859,8.176,13.947,8.176,19.784l-18.286-16.216c-0.581-0.121-1.029-0.26-1.383-0.412c-1.05-0.451-1.171-1.023-0.714-1.642
		c0.361-0.489,1.076-1.007,1.968-1.514c0.601-0.342,1.279-0.679,1.983-1C85.316,141.437,86.131,141.099,86.902,140.796z
		 M116.49,140.796c0.553-0.842,0.894-1.331,0.894-1.331s1.695,0.542,3.707,1.331c0.771,0.302,1.586,0.641,2.373,1
		c0.704,0.321,1.383,0.658,1.983,1c1.19,0.678,2.066,1.372,2.203,1.994c0.065,0.296-0.042,0.575-0.36,0.828
		c-0.361,0.287-0.989,0.542-1.971,0.746l-18.286,16.216c0-5.837,5.14-14.926,8.176-19.784c0.223-0.357,0.435-0.692,0.632-1
		C116.081,141.423,116.298,141.089,116.49,140.796z M85.52,151.562l5.062,4.489v35.782H85.52V151.562z M93.999,159.081l5.062,4.489
		v28.262h-5.062V159.081z M109.375,163.178l5.062-4.489v33.144h-5.062V163.178z M117.854,155.659l5.062-4.489v40.664h-5.062V155.659
		z M125.827,148.985l0.281-0.645l0.152-0.135c1.204-0.296,3.304-1.037,3.411-3.108c0.023-0.453,0.062-1.238-0.925-2.3h2.144v49.037
		h-5.062V148.985z M142.963,148.8l2.802,4.873l-2.802,4.252V148.8z"/>
	<path d="M65.253,40.044c2.129,1.621,4.384,2.84,6.798,3.971c1.106,0.485,2.218,0.957,3.334,1.418
		c2.81,1.177,3.898,2.32,6.171,4.229c-3.057-2.566-6.594,2.506-3.562,5.051c2.633,2.211,5.673,1.807,8.208-0.338
		c1.208-1.023,1.705-2.338,1.746-3.72c3.356,4.594,7.107,8.122,11.105,9.77V71.34c0,0.585,0.12,1.138,0.306,1.66h-7.723
		c-2.048,0-3.708,1.66-3.708,3.708v5.952c0,2.048,1.66,3.708,3.708,3.708h24.723c2.048,0,3.708-1.66,3.708-3.708v-5.952
		c0-2.048-1.66-3.708-3.708-3.708h-7.723c0.187-0.521,0.306-1.074,0.306-1.66V60.425c3.999-1.648,7.749-5.177,11.105-9.77
		c0.041,1.383,0.538,2.698,1.746,3.72c2.535,2.145,5.575,2.548,8.208,0.338c3.032-2.545-0.505-7.617-3.562-5.051
		c2.273-1.909,3.361-3.052,6.171-4.229c1.116-0.46,2.228-0.933,3.334-1.418c2.415-1.131,4.67-2.35,6.798-3.971
		c3.78-2.878,5.594-7.368,6.133-11.939c1.014-8.608-5.657-15.658-13.539-17.494c0.254-2.033,0.387-3.922,0.387-5.611H72.272
		c0,1.689,0.133,3.578,0.387,5.611c-7.882,1.836-14.553,8.886-13.539,17.494C59.659,32.676,61.474,37.166,65.253,40.044z
		 M134.295,16.745c8.464,2.444,12.196,13.868,3.489,19.315c-3.56,2.227-8.59,3.346-12.334,5.715
		C129.519,33.848,132.61,24.715,134.295,16.745z M73.705,16.745c1.685,7.97,4.777,17.104,8.846,25.03
		c-3.744-2.369-8.775-3.488-12.334-5.715C61.509,30.613,65.24,19.189,73.705,16.745z"/>
	<circle cx="103.997" cy="115.174" r="22.944"/>
</g>
</svg>
