<?xml version="1.0" encoding="iso-8859-1"?>
<!-- Generator: Adobe Illustrator 17.1.0, SVG Export Plug-In . SVG Version: 6.00 Build 0)  -->
<!DOCTYPE svg PUBLIC "-//W3C//DTD SVG 1.1//EN" "http://www.w3.org/Graphics/SVG/1.1/DTD/svg11.dtd">
<svg version="1.1" id="Capa_1" xmlns="http://www.w3.org/2000/svg" xmlns:xlink="http://www.w3.org/1999/xlink" x="0px" y="0px"
	 viewBox="0 0 200 200" style="enable-background:new 0 0 200 200;" xml:space="preserve">
<g>
	<path d="M140.082,15.896c0.044-1.047-0.808-1.896-1.855-1.896H61.773c-1.048,0-1.899,0.849-1.855,1.896
		c0.044,1.057,0.124,2.164,0.237,3.315c0.103,1.042-0.619,2.07-1.616,2.39c-9.146,2.926-16.497,11.405-15.294,21.619
		c0.681,5.78,2.976,11.459,7.755,15.098c2.692,2.05,5.543,3.592,8.597,5.022c1.399,0.613,2.804,1.211,4.216,1.793
		c2.907,1.217,4.356,2.406,6.361,4.119c0.796,0.681,0.795,0.586-0.233,0.39c-3.302-0.629-6.11,4.47-2.827,7.226
		c3.33,2.795,7.175,2.285,10.38-0.427c0.971-0.821,1.578-1.792,1.905-2.838c0.313-1,0.801-1.179,1.445-0.353
		c3.453,4.434,7.212,7.954,11.185,10.038c0.928,0.487,1.717,1.653,1.717,2.701v11.907c0,0.365,0.037,0.72,0.103,1.065
		c0.11,0.582-0.564,1.033-1.612,1.033h-7.871c-2.59,0-4.689,2.1-4.689,4.69v7.527c0,0.102,0.023,0.198,0.03,0.299h40.584
		c0.007-0.101,0.03-0.196,0.03-0.299v-7.527c0-2.59-2.1-4.69-4.689-4.69h-7.871c-1.047,0-1.722-0.451-1.612-1.033
		c0.066-0.345,0.103-0.7,0.103-1.065V85.987c0-1.047,0.79-2.214,1.717-2.701c3.973-2.083,7.732-5.604,11.186-10.038
		c0.644-0.826,1.131-0.647,1.444,0.353c0.327,1.047,0.935,2.017,1.905,2.838c3.206,2.713,7.05,3.223,10.38,0.427
		c3.283-2.756,0.475-7.856-2.827-7.226c-1.029,0.196-1.029,0.291-0.233-0.39c2.005-1.713,3.454-2.902,6.361-4.119
		c1.412-0.582,2.817-1.18,4.216-1.793c3.054-1.43,5.905-2.972,8.597-5.022c4.78-3.639,7.075-9.318,7.755-15.098
		c1.203-10.214-6.148-18.693-15.294-21.619c-0.998-0.319-1.719-1.347-1.616-2.389C139.958,18.061,140.038,16.953,140.082,15.896z
		 M71.233,59.557c-4.49-2.381-9.957-3.777-13.957-6.279c-10.379-6.493-6.782-19.701,2.629-23.785c0.96-0.417,1.957,0.19,2.191,1.211
		c2.071,9.052,5.505,19.109,9.927,28.107C72.485,59.751,72.158,60.048,71.233,59.557z M140.095,29.494
		c9.411,4.084,13.008,17.292,2.629,23.785c-4,2.502-9.466,3.898-13.957,6.279c-0.925,0.491-1.252,0.193-0.791-0.747
		c4.422-8.997,7.856-19.054,9.927-28.106C138.138,29.684,139.134,29.077,140.095,29.494z"/>
	<path d="M179.147,171.308h-1.035v-10.855c0-2.857-2.316-5.173-5.173-5.173h-2.586v-32.599c0-2.857-2.316-5.173-5.173-5.173H34.82
		c-2.857,0-5.173,2.316-5.173,5.173v32.599H27.06c-2.857,0-5.173,2.316-5.173,5.173v10.855h-1.035c-2.857,0-5.173,2.316-5.173,5.173
		v10.346c0,2.857,2.316,5.173,5.173,5.173h6.208h7.76h130.36h7.76h6.208c2.857,0,5.173-2.316,5.173-5.173v-10.346
		C184.32,173.624,182.004,171.308,179.147,171.308z M152.5,173c0,2.761-2.239,5-5,5h-95c-2.761,0-5-2.239-5-5v-38
		c0-2.761,2.239-5,5-5h95c2.761,0,5,2.239,5,5V173z"/>
</g>
</svg>
