<?xml version="1.0" encoding="iso-8859-1"?>
<!-- Generator: Adobe Illustrator 17.1.0, SVG Export Plug-In . SVG Version: 6.00 Build 0)  -->
<!DOCTYPE svg PUBLIC "-//W3C//DTD SVG 1.1//EN" "http://www.w3.org/Graphics/SVG/1.1/DTD/svg11.dtd">
<svg version="1.1" id="Capa_1" xmlns="http://www.w3.org/2000/svg" xmlns:xlink="http://www.w3.org/1999/xlink" x="0px" y="0px"
	 viewBox="0 0 200 200" style="enable-background:new 0 0 200 200;" xml:space="preserve">
<g>
	<path d="M172.274,32.769c-9.077-8.047-19.253-6.091-28.991-1.224c2.011-6.803,10.511-9.821,10.511-9.821s8.629-5.86-5.219-9.116
		C134.728,9.352,121.109,7.399,100,7.399s-34.728,1.953-48.575,5.209c-13.847,3.256-5.219,9.116-5.219,9.116
		s8.841,3.137,10.623,10.229c-9.981-5.16-20.468-7.454-29.796,0.815c-8.532,7.565-8.191,20.635-4.093,30.25
		c5.013,11.763,15.491,19.849,22.487,30.297c3.645,5.444,6.204,11.777,6.909,18.301c0.366,3.39-0.233,6.703-1.745,9.743
		c-0.667,1.341-4.456,3.377-3.676,2.157c3.476-5.443-5.5-9.876-8.932-4.502c-2.972,4.653-0.78,10.66,3.656,13.501
		c4.766,3.052,11.03,1.598,14.789-2.455c3.065-3.305,4.779-7.09,5.513-11.083c5.059,4.841,11.121,8.725,17.863,11.339
		c-0.816,1.053-1.304,2.351-1.304,3.762c0,2.961,2.128,5.441,5,6.134v13.341c0,0.821,0.163,1.617,0.442,2.384
		c-3.093,0.534-5.442,3.116-5.442,6.227c0,0.557,0.083,1.095,0.224,1.61h-8.5C63.473,163.776,58,169.249,58,176
		c0,6.751,5.473,12.224,12.224,12.224h59.552c6.751,0,12.224-5.473,12.224-12.224c0-6.751-5.473-12.224-12.224-12.224h-8.5
		c0.141-0.515,0.224-1.052,0.224-1.61c0-3.112-2.349-5.694-5.442-6.227c0.279-0.767,0.442-1.563,0.442-2.384v-13.341
		c2.872-0.693,5-3.173,5-6.134c0-1.411-0.488-2.71-1.304-3.762c6.489-2.516,12.342-6.212,17.283-10.802
		c0.786,3.794,2.474,7.389,5.402,10.545c3.759,4.053,10.023,5.508,14.789,2.455c4.436-2.841,6.628-8.848,3.656-13.501
		c-3.432-5.373-12.408-0.94-8.932,4.502c0.78,1.22-3.009-0.816-3.676-2.157c-1.512-3.04-2.111-6.353-1.745-9.743
		c0.223-2.069,0.652-4.115,1.224-6.123c1.398-2.689,2.553-5.512,3.447-8.442c0.691-1.281,1.432-2.533,2.237-3.736
		c6.996-10.448,17.474-18.534,22.487-30.297C180.466,53.404,180.806,40.333,172.274,32.769z M53.696,43.729
		c-7.813,11.111-8.272,26.295-7.906,33.997c-5.661-6.446-11.524-12.733-14.559-20.884c-2.306-6.195-1.322-12.649,3.276-17.427
		c5.566-5.783,14.69-0.385,20.201,2.755C54.402,42.68,54.07,43.198,53.696,43.729z M168.077,56.841
		c-2.905,7.803-8.402,13.895-13.832,20.055c0.29-7.922-0.398-22.441-7.941-33.167c-0.448-0.636-0.828-1.252-1.18-1.858
		c5.551-3.165,14.284-8.059,19.677-2.456C169.399,44.193,170.383,50.646,168.077,56.841z"/>
</g>
</svg>
