<?xml version="1.0" encoding="iso-8859-1"?>
<!-- Generator: Adobe Illustrator 17.1.0, SVG Export Plug-In . SVG Version: 6.00 Build 0)  -->
<!DOCTYPE svg PUBLIC "-//W3C//DTD SVG 1.1//EN" "http://www.w3.org/Graphics/SVG/1.1/DTD/svg11.dtd">
<svg version="1.1" id="Capa_1" xmlns="http://www.w3.org/2000/svg" xmlns:xlink="http://www.w3.org/1999/xlink" x="0px" y="0px"
	 viewBox="0 0 200 200" style="enable-background:new 0 0 200 200;" xml:space="preserve">
<g>
	<path d="M70.351,100.463c0.37-10.161,5.869-19.031,13.983-24.096V60.712l-68-5.712c-2.762,0-5,2.239-5,5v40c0,2.761,2.238,5,5,5
		L70.351,100.463z"/>
	<path d="M183.667,55l-68,5.667v15.7c8.124,5.071,13.625,13.956,13.984,24.132L183.667,105c2.762,0,5-2.239,5-5V60
		C188.667,57.239,186.428,55,183.667,55z"/>
	<path d="M110.667,73.869V61.084V60c0-2.761-2.238-5-5-5H94.333c-2.762,0-5,2.239-5,5v1.132v12.737
		c3.313-1.281,6.907-1.991,10.667-1.991S107.354,72.588,110.667,73.869z"/>
	<path d="M118.079,125.067c-4.988,3.844-11.225,6.144-17.99,6.164c-0.03,0-0.059,0.002-0.089,0.002s-0.059-0.002-0.089-0.002
		c-6.766-0.02-13.002-2.319-17.99-6.164L72.2,151.192c-0.292,0.66,0.014,0.977,0.684,0.707l10.355-4.165
		c0.669-0.269,1.416,0.061,1.667,0.738l3.879,10.466c0.251,0.677,0.691,0.69,0.983,0.03L100,131.47l10.232,27.499
		c0.292,0.66,0.732,0.646,0.983-0.03l3.879-10.466c0.251-0.677,0.997-1.007,1.667-0.738l10.355,4.165
		c0.67,0.269,0.976-0.047,0.684-0.707L118.079,125.067z"/>
	<path d="M75.374,100.041c-0.03,0.501-0.051,1.006-0.051,1.515c0,7.408,3.269,14.048,8.437,18.571
		c3.875,3.391,8.817,5.587,14.26,6.02c0.654,0.052,1.313,0.086,1.98,0.086s1.327-0.034,1.98-0.086
		c5.443-0.433,10.386-2.629,14.26-6.02c5.168-4.523,8.437-11.164,8.437-18.571c0-0.496-0.019-0.987-0.048-1.476
		c-0.417-7.08-3.816-13.357-8.963-17.591c-0.792-0.652-1.629-1.25-2.5-1.801c-0.804-0.509-1.637-0.977-2.5-1.391
		c-3.229-1.55-6.846-2.419-10.667-2.419s-7.438,0.869-10.667,2.419c-0.864,0.415-1.696,0.883-2.5,1.391
		c-0.87,0.55-1.707,1.149-2.5,1.801C79.196,86.715,75.802,92.977,75.374,100.041z M86.833,89.009c0.765-0.802,1.602-1.53,2.5-2.183
		c3.002-2.18,6.681-3.482,10.667-3.482s7.665,1.302,10.667,3.482c0.898,0.653,1.736,1.381,2.5,2.183
		c0.954,1.001,1.791,2.111,2.5,3.307c1.281,2.163,2.136,4.604,2.427,7.219c0.074,0.664,0.119,1.337,0.119,2.02
		c0,4.548-1.688,8.702-4.455,11.897c-2.378,2.746-5.559,4.766-9.177,5.708c-1.467,0.382-2.996,0.606-4.58,0.606
		s-3.113-0.224-4.58-0.606c-3.618-0.943-6.799-2.962-9.177-5.708c-2.767-3.195-4.455-7.349-4.455-11.897
		c0-0.699,0.048-1.386,0.125-2.064c0.295-2.598,1.146-5.024,2.42-7.176C85.042,91.119,85.879,90.01,86.833,89.009z"/>
	<path d="M88.566,108.155c1.338,2.313,3.355,4.177,5.782,5.329c1.715,0.815,3.627,1.284,5.652,1.284s3.937-0.469,5.652-1.284
		c2.427-1.152,4.443-3.015,5.782-5.329c0.071-0.123,0.148-0.242,0.215-0.368c0.995-1.857,1.562-3.977,1.562-6.231
		c0-0.413-0.025-0.82-0.062-1.223c-0.038-0.414-0.099-0.821-0.174-1.224c-0.369-1.966-1.175-3.772-2.31-5.327
		c-2.403-3.291-6.279-5.438-10.667-5.438s-8.264,2.147-10.667,5.438c-1.126,1.543-1.93,3.332-2.303,5.28
		c-0.08,0.417-0.141,0.841-0.181,1.271c-0.037,0.403-0.062,0.81-0.062,1.223c0,2.254,0.567,4.375,1.562,6.231
		C88.418,107.913,88.495,108.032,88.566,108.155z"/>
</g>
</svg>
