<?xml version="1.0" encoding="iso-8859-1"?>
<!-- Generator: Adobe Illustrator 17.1.0, SVG Export Plug-In . SVG Version: 6.00 Build 0)  -->
<!DOCTYPE svg PUBLIC "-//W3C//DTD SVG 1.1//EN" "http://www.w3.org/Graphics/SVG/1.1/DTD/svg11.dtd">
<svg version="1.1" id="Capa_1" xmlns="http://www.w3.org/2000/svg" xmlns:xlink="http://www.w3.org/1999/xlink" x="0px" y="0px"
	 viewBox="0 0 200 200" style="enable-background:new 0 0 200 200;" xml:space="preserve">
<g>
	<path d="M189.414,108.184V79.816c-0.361,0.03-0.728,0.047-1.1,0.047h-10.552c-0.72,7.052-8.885,13.171-23.759,17.744
		c-13.532,4.161-31.197,6.571-50.099,6.863c0.136,0.169,0.261,0.348,0.375,0.537l1.893,3.132h82.142
		C188.687,108.138,189.053,108.154,189.414,108.184z"/>
	<path d="M22.238,79.862H11.686c-0.372,0-0.739-0.016-1.1-0.047v28.369c0.361-0.03,0.728-0.047,1.1-0.047h82.142l1.893-3.132
		c0.114-0.188,0.239-0.367,0.375-0.537c-18.901-0.292-36.566-2.703-50.099-6.863C31.123,93.034,22.958,86.914,22.238,79.862z"/>
	<path d="M188.314,64H11.686c-3.036,0-5.497,1.737-5.497,3.879v3.103c0,2.143,2.461,3.879,5.497,3.879h4.397h167.834h4.397
		c3.036,0,5.497-1.737,5.497-3.879v-3.103C193.812,65.737,191.351,64,188.314,64z"/>
	<path d="M86.297,120.598l4.509-7.46H16.083h-4.397c-3.036,0-5.497,1.737-5.497,3.879v3.103c0,2.143,2.461,3.879,5.497,3.879h58.654
		L86.297,120.598z"/>
	<path d="M188.314,113.138h-4.397h-74.723l4.509,7.46L129.661,124h58.654c3.036,0,5.497-1.737,5.497-3.879v-3.103
		C193.812,114.875,191.351,113.138,188.314,113.138z"/>
	<polygon points="129.133,129 117.406,126.5 110.543,125.037 109.917,124 103.352,113.138 101.841,110.638 100.33,108.138 
		100,107.592 99.67,108.138 98.159,110.638 96.648,113.138 90.083,124 89.457,125.037 82.594,126.5 70.867,129 70.397,129.1 
		84.629,142.901 81.705,163.9 100,154.942 118.295,163.9 115.371,142.901 129.603,129.1 	"/>
	<path d="M27.167,78.84c0,0.339,0.044,0.681,0.116,1.022C29.27,89.355,58.569,99.5,100,99.5s70.73-10.145,72.717-19.638
		c0.072-0.342,0.116-0.683,0.116-1.022v0L27.167,78.84L27.167,78.84z"/>
</g>
</svg>
