<?xml version="1.0" encoding="iso-8859-1"?>
<!-- Generator: Adobe Illustrator 17.1.0, SVG Export Plug-In . SVG Version: 6.00 Build 0)  -->
<!DOCTYPE svg PUBLIC "-//W3C//DTD SVG 1.1//EN" "http://www.w3.org/Graphics/SVG/1.1/DTD/svg11.dtd">
<svg version="1.1" id="Capa_1" xmlns="http://www.w3.org/2000/svg" xmlns:xlink="http://www.w3.org/1999/xlink" x="0px" y="0px"
	 viewBox="0 0 200 200" style="enable-background:new 0 0 200 200;" xml:space="preserve">
<g>
	<path d="M84.297,178.635c-0.104-5.604,3.963-9.985,9.462-10.19c22.431-0.839,43.874-2.558,59.972-11.534
		c3.453-4.397,6.447-9.171,8.881-14.267c-2.324-3.296-3.657-7.292-3.657-11.523V102.1c0-2.322,0.417-4.543,1.147-6.618
		c-4.176-4.487-8.692-11.46-12.453-22.317c-0.01-0.006-0.021-0.012-0.03-0.019c-5.379-3.241-11.901-4.929-20.488-5.295
		c-7.083,2.855-13.407,4.244-19.318,4.244c-1.643,0-3.27-0.11-4.836-0.33c-3.285-0.459-6.426-0.893-9.469-1.299
		c-3.042,0.406-6.184,0.84-9.47,1.299c-1.565,0.22-3.192,0.33-4.835,0.33c-5.91,0-12.234-1.389-19.317-4.244
		c-8.587,0.366-15.109,2.054-20.491,5.297c-0.009,0.005-0.019,0.011-0.027,0.017c-7.129,20.585-16.975,27.237-22.062,29.364
		c-0.219,2.359-0.344,4.744-0.344,7.16c0,40.342,31.214,73.372,70.806,76.311C85.676,184.296,84.354,181.678,84.297,178.635z
		 M119.473,104.799c13.585,0,13.585,21.066,0,21.066S105.888,104.799,119.473,104.799z M73.655,106.379
		c13.585,0,13.585,21.066,0,21.066S60.07,106.379,73.655,106.379z M81.108,146.493c9.097,4.563,19.618,4.229,28.494-0.678
		c5.949-3.289,11.261,5.809,5.316,9.095c-12.306,6.803-26.589,6.967-39.126,0.678C69.719,152.542,75.055,143.456,81.108,146.493z"/>
	<path d="M34.941,70.651c0.206-0.614,0.643-1.124,1.217-1.423c0.222-0.115,0.44-0.234,0.654-0.363
		c6.25-3.766,13.692-5.682,23.425-6.032c0.358-0.011,0.711,0.05,1.04,0.186c8.423,3.461,15.628,4.693,22.068,3.795
		c3.416-0.478,6.678-0.928,9.832-1.349c0.219-0.029,0.441-0.029,0.66,0c3.155,0.421,6.416,0.871,9.831,1.349
		c6.445,0.899,13.646-0.333,22.069-3.795c0.302-0.124,0.624-0.188,0.95-0.188c0.03,0,0.06,0.001,0.09,0.002
		c9.733,0.351,17.176,2.267,23.423,6.031c0.215,0.13,0.433,0.248,0.654,0.362c0.576,0.299,1.014,0.81,1.22,1.425
		c3.214,9.577,6.993,15.879,10.479,20.026c1.1-1.576,2.417-2.986,3.913-4.187c2.389-1.919,5.222-3.303,8.323-3.966
		c0.337-7.633,0.16-16.802-0.458-25.246c-0.452-5.025-4.514-10.699-11.742-16.367c-7.291-5.717-15.084-10.681-23.162-14.754
		c-0.034-0.018-0.068-0.036-0.103-0.055c-14.493-8.179-29.917-12.241-45.787-12.034c-0.426-0.005-0.792-0.007-1.157-0.007
		c-15.496,0-30.531,4.051-44.69,12.041c-0.034,0.019-0.068,0.037-0.103,0.055c-8.08,4.073-15.872,9.037-23.161,14.753
		c-7.229,5.668-11.29,11.343-11.746,16.41c-1.203,16.455-0.733,35.725,1.979,40.871c0.825-0.296,2.026-0.83,3.468-1.762
		C22.652,93.505,29.578,86.632,34.941,70.651z"/>
	<path d="M179.526,87.105c-0.184-0.007-0.364-0.028-0.549-0.028c-0.665,0-1.314,0.058-1.957,0.142
		c-0.881,0.115-1.741,0.294-2.567,0.554c-2.521,0.795-4.743,2.246-6.495,4.14c-0.688,0.744-1.3,1.556-1.828,2.428
		c-0.45,0.744-0.838,1.526-1.155,2.347c-0.321,0.829-0.576,1.69-0.746,2.583c-0.175,0.917-0.275,1.861-0.275,2.829v29.02
		c0,2.024,0.405,3.952,1.131,5.712c1.644,3.985,4.953,7.106,9.062,8.502c-7.34,10.336-17.513,16.743-28.931,20.787
		c-16.079,5.695-34.634,6.697-51.271,7.32c-6.116,0.229-6.21,9.634-0.22,9.634c0.073,0,0.146-0.001,0.22-0.004
		c8.804-0.329,18.006-0.833,27.125-1.971c26.084-3.255,51.483-11.741,64.878-36.5c0.042-0.076,0.058-0.15,0.095-0.225
		c4.733-2.529,7.956-7.514,7.956-13.255V102.1C194,93.988,187.566,87.396,179.526,87.105z"/>
</g>
</svg>
