<?xml version="1.0" encoding="iso-8859-1"?>
<!-- Generator: Adobe Illustrator 17.1.0, SVG Export Plug-In . SVG Version: 6.00 Build 0)  -->
<!DOCTYPE svg PUBLIC "-//W3C//DTD SVG 1.1//EN" "http://www.w3.org/Graphics/SVG/1.1/DTD/svg11.dtd">
<svg version="1.1" id="Capa_1" xmlns="http://www.w3.org/2000/svg" xmlns:xlink="http://www.w3.org/1999/xlink" x="0px" y="0px"
	 viewBox="0 0 200 200" style="enable-background:new 0 0 200 200;" xml:space="preserve">
<g>
	<circle cx="100" cy="115.834" r="19.276"/>
	<path d="M78.868,157.991c0,0-0.147,33.074-0.147,33.575h42.56c0-0.502-0.147-33.575-0.147-33.575l19.816-30.066
		c0.792-1.2,1.213-2.607,1.213-4.044V72.038c0-4.058-3.29-7.348-7.348-7.348s-7.348,3.289-7.348,7.348v49.639l-11.418,17.326H100
		H83.953l-11.418-17.326V72.038c0-4.058-3.29-7.348-7.348-7.348s-7.348,3.289-7.348,7.348v51.843c0,1.437,0.421,2.844,1.213,4.044
		L78.868,157.991z"/>
	<path d="M72.428,13.797c1.543,10.548,8.639,21.976,18.115,26.816l-1.969,17.722h-4.609c-2.31,0-4.183,1.873-4.183,4.183v12.549
		c0,2.31,1.873,4.183,4.183,4.183h32.07c2.31,0,4.183-1.873,4.183-4.183V62.518c0-2.31-1.873-4.183-4.183-4.183h-4.609
		l-1.969-17.722c9.476-4.84,16.572-16.268,18.115-26.816c1.604-0.585,2.755-2.11,2.755-3.917V9.183c0-2.31-1.873-4.183-4.183-4.183
		H73.856c-2.31,0-4.183,1.873-4.183,4.183V9.88C69.673,11.687,70.824,13.211,72.428,13.797z M107.819,63.062
		c2.355,0,4.265,1.689,4.265,3.773v4.611c0,2.084-1.91,3.773-4.265,3.773H92.181c-2.355,0-4.265-1.689-4.265-3.773v-4.611
		c0-2.084,1.91-3.773,4.265-3.773H107.819z"/>
</g>
</svg>
