<?xml version="1.0" encoding="iso-8859-1"?>
<!-- Generator: Adobe Illustrator 17.1.0, SVG Export Plug-In . SVG Version: 6.00 Build 0)  -->
<!DOCTYPE svg PUBLIC "-//W3C//DTD SVG 1.1//EN" "http://www.w3.org/Graphics/SVG/1.1/DTD/svg11.dtd">
<svg version="1.1" id="Capa_1" xmlns="http://www.w3.org/2000/svg" xmlns:xlink="http://www.w3.org/1999/xlink" x="0px" y="0px"
	 viewBox="0 0 200 200" style="enable-background:new 0 0 200 200;" xml:space="preserve">
<g>
	<path d="M48.904,132.641l18.606-32.227c0.099-0.171,0.225-0.328,0.336-0.494c-5.293-14.87-9.956-39.662-10.172-80.921
		C57.666,17.342,56.324,16,54.667,16H8.333c-1.657,0-2.884,1.339-2.707,2.986C7.247,34.114,16.268,102.725,48.904,132.641z"/>
	<path d="M192,16h-46.333c-1.657,0-2.999,1.344-3.008,3c-0.219,41.799-5.004,66.506-10.384,81.098
		c0.068,0.107,0.151,0.206,0.214,0.315l18.722,32.427c32.815-29.81,41.872-98.693,43.496-113.855C194.884,17.339,193.657,16,192,16z
		"/>
	<path d="M48.181,143.893c-0.828,1.435-0.828,3.761,0,5.196l23.659,40.979c0.828,1.435,2.843,2.598,4.5,2.598h47.319
		c1.657,0,3.672-1.163,4.5-2.598l23.659-40.979c0.828-1.435,0.828-3.761,0-5.196l-4.5-7.794l-17.439-30.205l-1.721-2.98
		c-0.828-1.435-2.843-2.598-4.5-2.598H76.341c-1.657,0-3.672,1.163-4.5,2.598l-1.661,2.876l-17.396,30.131L48.181,143.893z
		 M73.715,112.565l2.627-4.55c0.447-0.773,1.272-1.25,2.165-1.25h42.985c0.893,0,1.718,0.477,2.165,1.25l2.594,4.493l15.728,27.242
		l3.17,5.491c0.447,0.773,0.447,1.727,0,2.5l-21.493,37.227c-0.447,0.773-1.272,1.25-2.165,1.25H78.507
		c-0.893,0-1.718-0.477-2.165-1.25L54.85,147.741c-0.447-0.773-0.447-1.727,0-2.5l3.254-5.635L73.715,112.565z"/>
	<path d="M120.049,181.218l20.049-34.727l-2.531-4.384l-14.617-25.317l-2.901-5.025H79.951l-3.035,5.256l-14.412,24.962
		l-2.603,4.508l20.049,34.727H120.049z M99.073,124.7c0.512-1.576,1.342-1.576,1.854,0l4.606,14.176H117h3.438
		c1.657,0,1.913,0.789,0.573,1.763L117,143.553l-8.047,5.847l4.606,14.176c0.512,1.576-0.16,2.064-1.5,1.09L100,155.905
		l-12.058,8.761c-1.34,0.974-2.012,0.486-1.5-1.09l4.606-14.176l-7.726-5.613l-4.332-3.147c-1.34-0.974-1.084-1.763,0.573-1.763
		h3.771h11.134L99.073,124.7z"/>
</g>
</svg>
