<?xml version="1.0" encoding="iso-8859-1"?>
<!-- Generator: Adobe Illustrator 17.1.0, SVG Export Plug-In . SVG Version: 6.00 Build 0)  -->
<!DOCTYPE svg PUBLIC "-//W3C//DTD SVG 1.1//EN" "http://www.w3.org/Graphics/SVG/1.1/DTD/svg11.dtd">
<svg version="1.1" id="Capa_1" xmlns="http://www.w3.org/2000/svg" xmlns:xlink="http://www.w3.org/1999/xlink" x="0px" y="0px"
	 viewBox="0 0 200 200" style="enable-background:new 0 0 200 200;" xml:space="preserve">
<g>
	<path d="M172.141,62.056h-38.108c-1.657,0-2.119-1.018-1.181-2.384c3.894-5.673,6.108-13.29,4.929-26.258
		c-0.982-10.8-3.363-14.936-6.63-14.937c-5.397-0.001-13.214,11.285-21.144,22.459c-10.315,14.535-30.128,26.22-37.274,30.13
		c-1.453,0.795-3.915,1.859-5.475,2.42l-20.103,7.228c-1.559,0.561-2.823,2.358-2.823,4.015v59.095c0,1.657,1.171,3.659,2.615,4.471
		l8.658,4.87c1.444,0.812,3.959,1.457,5.612,1.579c9.107,0.672,15.042,4.341,20.223,7.518c1.412,0.866,3.538,2.492,4.92,3.405
		c2.72,1.796,5.965,2.856,9.47,2.856h60.381c8.572,0,17.325-6.213,19.083-14.381c0.349-1.62,0.573-4.296,0.888-5.923L188.93,82.36
		c0.315-1.627,0.597-4.299,0.314-5.931C187.829,68.265,180.71,62.056,172.141,62.056z"/>
	<path d="M35.5,75h-11c-2.761,0-5,2.239-5,5v69c0,2.761,2.239,5,5,5h11c2.761,0,5-2.239,5-5V80C40.5,77.239,38.261,75,35.5,75z"/>
</g>
</svg>
