<?xml version="1.0" encoding="iso-8859-1"?>
<!-- Generator: Adobe Illustrator 17.1.0, SVG Export Plug-In . SVG Version: 6.00 Build 0)  -->
<!DOCTYPE svg PUBLIC "-//W3C//DTD SVG 1.1//EN" "http://www.w3.org/Graphics/SVG/1.1/DTD/svg11.dtd">
<svg version="1.1" id="Capa_1" xmlns="http://www.w3.org/2000/svg" xmlns:xlink="http://www.w3.org/1999/xlink" x="0px" y="0px"
	 viewBox="0 0 200 200" style="enable-background:new 0 0 200 200;" xml:space="preserve">
<g>
	<path d="M65.43,160.377c-9.515-21.108-22.002-45.749-26.1-53.764H15.969c-4.973,0-9.004,3.671-9.004,8.199v63.326
		c0,4.528,4.031,8.199,9.004,8.199h59.924c-1.766-5.788-5.244-14.264-9.406-23.604L65.43,160.377z M26.667,153.167h-9.333
		c-1.381,0-2.5-1.119-2.5-2.5s1.119-2.5,2.5-2.5h9.333c1.381,0,2.5,1.119,2.5,2.5S28.047,153.167,26.667,153.167z M26.667,143.167
		h-9.333c-1.381,0-2.5-1.119-2.5-2.5s1.119-2.5,2.5-2.5h9.333c1.381,0,2.5,1.119,2.5,2.5S28.047,143.167,26.667,143.167z
		 M44.667,153.167h-9.333c-1.381,0-2.5-1.119-2.5-2.5s1.119-2.5,2.5-2.5h9.333c1.381,0,2.5,1.119,2.5,2.5
		S46.047,153.167,44.667,153.167z M44.667,143.167h-9.333c-1.381,0-2.5-1.119-2.5-2.5s1.119-2.5,2.5-2.5h9.333
		c1.381,0,2.5,1.119,2.5,2.5S46.047,143.167,44.667,143.167z"/>
	<path d="M61.747,122.795c-0.76,0.842-1.839,1.319-2.968,1.319c-0.058,0-0.116-0.001-0.174-0.004
		c-1.191-0.052-2.297-0.632-3.016-1.582l-11.186-14.782c5.228,10.267,16.417,32.543,25.077,51.882l3.032-28.555
		c-3.809-2.548-6.275-7.245-6.275-12.426c0-0.292,0.024-0.577,0.039-0.865L61.747,122.795z"/>
	<path d="M85.489,131.073l3.12,29.389c9.042-20.274,21.02-44.038,26.026-53.848h-0.18l-12.044,15.915
		c-0.719,0.951-1.825,1.531-3.016,1.582c-0.058,0.003-0.116,0.004-0.174,0.004c-1.129,0-2.208-0.477-2.968-1.319l-4.529-5.014
		c0.015,0.288,0.039,0.573,0.039,0.865C91.763,123.828,89.298,128.525,85.489,131.073z"/>
	<path d="M155.035,112.765c-1.429,0-2.841,0.073-4.235,0.211c-0.917-3.643-4.491-6.363-8.769-6.363H119.13
		c-4.109,8.036-16.652,32.788-26.177,53.933l-0.945,2.109c-4.178,9.37-7.671,17.877-9.441,23.682h42.927
		c7.681,7.361,18.087,11.898,29.54,11.898c23.564,0,42.735-19.171,42.735-42.735S178.6,112.765,155.035,112.765z M137.011,186.337
		c-10.584-6.211-17.71-17.704-17.71-30.837c0-18.352,13.907-33.51,31.735-35.506c1.314-0.147,2.647-0.23,4-0.23
		c19.705,0,35.735,16.031,35.735,35.735s-16.031,35.735-35.735,35.735C148.464,191.235,142.306,189.445,137.011,186.337z"/>
	<path d="M119.761,54.505c-2.804-0.976-8.64-4.38-12.83-16.181c-2.583-1.466-5.717-2.25-9.792-2.449
		c-4.922,1.952-9.262,2.627-13.249,2.067c-1.694-0.236-3.318-0.461-4.891-0.672c-1.573,0.211-3.197,0.436-4.892,0.672
		c-3.983,0.562-8.326-0.115-13.248-2.067c-4.074,0.199-7.208,0.983-9.792,2.449c-4.19,11.802-10.026,15.206-12.83,16.181
		c-0.051,0.834-0.085,1.672-0.085,2.518c0,12.594,5.703,23.853,14.664,31.346c5.45,3.521,10.567,6.07,14.539,7.807
		c3.691,1.096,7.596,1.693,11.643,1.693c4.063,0,7.984-0.602,11.689-1.706c3.956-1.732,9.047-4.274,14.492-7.793
		c8.961-7.493,14.665-18.752,14.665-31.346C119.846,56.177,119.812,55.339,119.761,54.505z"/>
	<path d="M120.965,29.143c-0.146-1.615-1.277-4.337-5.822-7.9c-3.833-3.006-7.925-5.612-12.165-7.749
		c-0.035-0.018-0.07-0.036-0.104-0.056c-7.377-4.163-15.207-6.274-23.27-6.274l-0.575,0.004l-0.636-0.004
		c-8.063,0-15.892,2.111-23.27,6.274c-0.034,0.02-0.068,0.038-0.104,0.056c-4.238,2.136-8.331,4.743-12.164,7.749
		c-4.545,3.562-5.677,6.285-5.826,7.942c-0.61,8.353-0.339,16.826,0.548,20.135c0.434-0.241,0.952-0.581,1.522-1.039
		c2.167-1.741,5.134-5.285,7.541-12.458c0.205-0.611,0.639-1.119,1.21-1.419c0.099-0.052,0.197-0.104,0.292-0.161
		c3.512-2.116,7.661-3.191,13.059-3.386c0.354-0.011,0.711,0.05,1.041,0.186c4.295,1.766,7.94,2.396,11.171,1.949
		c1.825-0.255,3.567-0.496,5.252-0.721c0.22-0.029,0.442-0.029,0.662,0c1.686,0.225,3.427,0.466,5.252,0.721
		c3.234,0.447,6.876-0.184,11.171-1.949c0.33-0.136,0.689-0.195,1.041-0.186c5.398,0.194,9.547,1.27,13.059,3.385
		c0.096,0.058,0.194,0.11,0.293,0.162c0.572,0.3,1.005,0.808,1.21,1.419c2.402,7.158,5.363,10.703,7.539,12.449
		c0.57,0.457,1.089,0.798,1.526,1.04C121.309,45.996,121.578,37.523,120.965,29.143z"/>
	<path d="M74.202,103.038c0,0-11.568-3.305-24.788-12.119l-6.059,8.813l5.207,6.88l10.217,13.501l12.195-13.501L74.202,103.038z"/>
	<path d="M108.586,90.92c-13.22,8.813-24.788,12.119-24.788,12.119l3.229,3.575l12.195,13.501l10.217-13.501l5.207-6.88
		L108.586,90.92z"/>
	<path d="M81.218,128.732c3.764-1.171,6.546-5.236,6.546-10.086c0-5.764-3.923-10.436-8.763-10.436s-8.763,4.672-8.763,10.436
		c0,4.849,2.782,8.915,6.546,10.086l-4.015,37.81L79,181.202l6.232-14.66L81.218,128.732z"/>
	<polygon points="181.114,147.789 164.324,144.21 155.035,128.842 151.035,135.46 145.747,144.21 128.957,147.789 141.495,159.946 
		138.918,178.446 151.035,172.513 155.035,170.554 171.153,178.446 168.576,159.946 	"/>
</g>
</svg>
