<?xml version="1.0" encoding="iso-8859-1"?>
<!-- Generator: Adobe Illustrator 17.1.0, SVG Export Plug-In . SVG Version: 6.00 Build 0)  -->
<!DOCTYPE svg PUBLIC "-//W3C//DTD SVG 1.1//EN" "http://www.w3.org/Graphics/SVG/1.1/DTD/svg11.dtd">
<svg version="1.1" id="Capa_1" xmlns="http://www.w3.org/2000/svg" xmlns:xlink="http://www.w3.org/1999/xlink" x="0px" y="0px"
	 viewBox="0 0 200 200" style="enable-background:new 0 0 200 200;" xml:space="preserve">
<g>
	<path d="M181.887,61h-31.771c-2.762,0-5,2.239-5,5v25.5h-24.23V52c0-2.761-2.239-5-5-5H84.114c-2.761,0-5,2.239-5,5v39.5h-24.23V66
		c0-2.761-2.238-5-5-5H18.113c-2.761,0-5,2.239-5,5v30.56c0,1.128,0.388,2.158,1.018,2.995L27.946,141H27.5c-2.761,0-5,2.239-5,5v7
		c0,2.761,2.239,5,5,5h145c2.761,0,5-2.239,5-5v-7c0-2.602-1.995-4.714-4.534-4.953l13.005-41.617c0.573-0.813,0.916-1.8,0.916-2.87
		V66C186.887,63.239,184.648,61,181.887,61z M51,128c-4.142,0-7.5-3.358-7.5-7.5s3.358-7.5,7.5-7.5s7.5,3.358,7.5,7.5
		S55.142,128,51,128z M100,133c-6.903,0-12.5-5.596-12.5-12.5S93.097,108,100,108s12.5,5.596,12.5,12.5S106.903,133,100,133z
		 M154.5,128c-4.142,0-7.5-3.358-7.5-7.5s3.358-7.5,7.5-7.5s7.5,3.358,7.5,7.5S158.642,128,154.5,128z"/>
</g>
</svg>
