<?xml version="1.0" encoding="iso-8859-1"?>
<!-- Generator: Adobe Illustrator 17.1.0, SVG Export Plug-In . SVG Version: 6.00 Build 0)  -->
<!DOCTYPE svg PUBLIC "-//W3C//DTD SVG 1.1//EN" "http://www.w3.org/Graphics/SVG/1.1/DTD/svg11.dtd">
<svg version="1.1" id="Capa_1" xmlns="http://www.w3.org/2000/svg" xmlns:xlink="http://www.w3.org/1999/xlink" x="0px" y="0px"
	 viewBox="0 0 200 200" style="enable-background:new 0 0 200 200;" xml:space="preserve">
<g>
	<path d="M162.323,2.5c-1.477,0-3.005,0.709-3.988,1.852c-0.923,1.072-1.312,2.454-1.096,3.891
		c6.546,43.418-14.462,87.899-52.276,110.688c-0.186,0.111-0.362,0.234-0.534,0.371c-1.208-0.307-2.463-0.462-3.735-0.462
		c-0.237,0-0.475,0.005-0.67,0.017c-1.535-0.077-3.018,0.081-4.451,0.445c-0.172-0.137-0.348-0.26-0.533-0.371
		C57.224,96.142,36.215,51.66,42.762,8.242c0.216-1.436-0.173-2.818-1.097-3.891C40.683,3.209,39.154,2.5,37.677,2.5
		c-2.047,0-3.515,1.306-3.833,3.408C26.777,52.79,47.759,99.459,87.324,124.963c-0.919,1.284-1.629,2.7-2.117,4.195
		c-0.326,0.998-0.553,2.032-0.677,3.084c-0.111,0.94-0.127,1.895-0.071,2.854c-9.757,5.456-16.357,15.882-16.357,27.855
		c0,17.617,14.282,31.899,31.899,31.899s31.899-14.282,31.899-31.899c0-11.973-6.6-22.399-16.357-27.855
		c0.056-0.959,0.04-1.914-0.071-2.854c-0.124-1.052-0.351-2.086-0.677-3.084c-0.488-1.495-1.198-2.911-2.117-4.195
		c39.564-25.504,60.546-72.173,53.479-119.055C165.838,3.806,164.37,2.5,162.323,2.5z M94.71,130.269
		c0.549-0.658,1.262-1.185,2.065-1.56c0.88-0.411,1.87-0.641,2.89-0.641c0.104,0,0.208,0.003,0.356,0.008
		c1.132-0.055,2.233,0.179,3.2,0.633c0.804,0.377,1.518,0.902,2.067,1.561c0.295,0.354,0.596,0.816,0.827,1.376
		c-1.98-0.385-4.024-0.592-6.117-0.592c-2.093,0-4.136,0.208-6.117,0.592C94.114,131.084,94.415,130.623,94.71,130.269z
		 M125.507,162.951c0,14.064-11.442,25.507-25.507,25.507s-25.507-11.442-25.507-25.507c0-9.792,5.549-18.308,13.665-22.581
		c0.255-0.134,0.51-0.269,0.771-0.395c1.032-0.499,2.104-0.926,3.208-1.285c0.266-0.086,0.534-0.167,0.804-0.244
		c2.244-0.647,4.61-1.001,7.06-1.001c2.449,0,4.816,0.354,7.059,1.001c0.27,0.078,0.538,0.158,0.804,0.244
		c1.103,0.358,2.176,0.785,3.208,1.285c0.26,0.126,0.515,0.261,0.771,0.395C119.957,144.644,125.507,153.16,125.507,162.951z"/>
	<circle cx="100" cy="162.951" r="20.507"/>
</g>
</svg>
