<?xml version="1.0" encoding="iso-8859-1"?>
<!-- Generator: Adobe Illustrator 17.1.0, SVG Export Plug-In . SVG Version: 6.00 Build 0)  -->
<!DOCTYPE svg PUBLIC "-//W3C//DTD SVG 1.1//EN" "http://www.w3.org/Graphics/SVG/1.1/DTD/svg11.dtd">
<svg version="1.1" id="Capa_1" xmlns="http://www.w3.org/2000/svg" xmlns:xlink="http://www.w3.org/1999/xlink" x="0px" y="0px"
	 viewBox="0 0 200 200" style="enable-background:new 0 0 200 200;" xml:space="preserve">
<g>
	<path d="M52.503,111.333h20.234h45.814c0.095-0.161,0.191-0.32,0.284-0.483c0.094,0.162,0.187,0.325,0.284,0.483h57.03
		c0.836-2.388,1.216-4.944,1.012-7.664c-0.433-6.935-3.253-12.822-8.41-16.662c0.21,7.048-8.261,11.298-14.355,4.556
		c-10.097-11.171,1.38-28.02,4.73-41.989c1.874-7.821-0.76-20.071-10.779-28.13l-0.169-0.267c2.389,3.599,3.23,6.466,3.878,9.717
		c1.084,5.42-1.723,14.731-9.526,13.863c-4.984-0.432-7.571-6.677-4.539-10.794c-4.117,3.684-8.454,10.403-8.233,16.254
		c0,6.72,4.697,14.098,8.291,19.638c1.687,2.599,3.49,5.629,3.776,8.892c0.309,3.522-1.13,7.196-5.167,8.925
		c-3.459,1.486-7.089,0.008-8.804-2.299c-1.861-2.506-2.188-5.881-1.102-9.431c2.585-8.464,2.241-15.295-4.544-18.858
		c5.468,8.885,1.445,15.537-2.442,22.942c-4.803-10.415-12.354-18.861-4.998-30.813c-7.817,4.104-8.213,11.975-5.235,21.726
		c1.251,4.09,0.875,7.977-1.269,10.865c-1.976,2.658-6.159,4.361-10.144,2.649c-4.651-1.993-6.309-6.225-5.952-10.283
		c0.329-3.759,2.407-7.251,4.35-10.245c4.141-6.383,9.552-14.883,9.552-22.625c0.255-6.741-4.743-14.482-9.485-18.727
		c3.493,4.744,0.513,11.939-5.229,12.436c-8.99,1-12.225-9.728-10.975-15.972c0.747-3.746,1.716-7.048,4.468-11.195l-0.195,0.307
		C73.11,17.436,70.076,31.55,72.235,40.56c3.86,16.094,17.083,35.506,5.45,48.377c-7.021,7.768-16.781,2.871-16.539-5.249
		c-4.645,3.459-7.637,8.364-8.963,14.156c-2.157-8.356,4.316-18.913,6.482-27.943c1.475-6.155-0.598-15.796-8.483-22.139
		l-0.133-0.21c1.88,2.833,2.542,5.089,3.052,7.647c0.854,4.266-1.356,11.594-7.497,10.911c-3.923-0.34-5.958-5.255-3.572-8.495
		c-3.24,2.899-6.654,8.188-6.48,12.792c0,5.289,3.697,11.095,6.525,15.455c1.328,2.045,2.747,4.431,2.972,6.999
		c0.243,2.772-0.889,5.663-4.066,7.024c-2.722,1.17-5.579,0.006-6.929-1.81c-1.465-1.973-1.722-4.628-0.867-7.422
		c2.034-6.661,1.764-12.038-3.576-14.842c5.61,9.115-1.475,15.244-4.466,23.594c-1.454,4.061-1.715,8.038-0.857,11.927H52.503z"/>
	<path d="M36.78,177.97c0,2.79,2.941,5.052,6.569,5.052h112.988c3.628,0,6.569-2.262,6.569-5.052v-17.795L194,116.333h-20.404
		h-28.219c-1.646-1.048-3.432-1.895-5.326-2.5c-2.203-0.704-4.548-1.087-6.981-1.087c-2.433,0-4.778,0.383-6.981,1.087
		c-1.362,0.435-2.669,0.992-3.908,1.661c-0.484,0.262-0.955,0.544-1.417,0.838h-5.812h-2.144c-1.646-1.048-3.432-1.895-5.326-2.5
		c-2.203-0.704-4.548-1.087-6.981-1.087s-4.778,0.383-6.981,1.087c-1.894,0.605-3.68,1.452-5.326,2.5h-7.955
		c-1.646-1.048-3.432-1.895-5.326-2.5c-0.662-0.212-1.338-0.391-2.025-0.543c-1.597-0.352-3.254-0.544-4.956-0.544
		c-2.433,0-4.778,0.383-6.981,1.087c-1.894,0.605-3.68,1.452-5.326,2.5h-0.803H26.033H7l29.78,43.815V177.97z M116.785,174.457
		c-6.992,0-13.089-3.871-16.285-9.577c-3.195,5.706-9.293,9.577-16.285,9.577c-9.327,0-17.055-6.886-18.422-15.837
		c-0.127-0.833-0.21-1.679-0.223-2.544c-0.001-0.093-0.014-0.184-0.014-0.277c0-0.527,0.036-1.045,0.079-1.561
		c-9.207-1.137-16.364-8.993-16.364-18.503c0-0.776,0.062-1.536,0.155-2.287c0.68-5.526,3.773-10.311,8.203-13.256
		c2.955-1.965,6.495-3.116,10.301-3.116c1.52,0,2.989,0.203,4.405,0.547c3.534,0.86,6.674,2.721,9.103,5.276
		c0.607,0.639,1.169,1.32,1.682,2.039c0.393,0.552,0.762,1.121,1.095,1.715c0.333-0.594,0.701-1.163,1.095-1.715
		c0.513-0.72,1.075-1.4,1.682-2.039c3.402-3.578,8.193-5.823,13.507-5.823c3.891,0,7.505,1.201,10.499,3.246
		c1.095,0.748,2.098,1.619,3.009,2.577c0.607,0.639,1.169,1.32,1.682,2.039c0.393,0.552,0.762,1.121,1.095,1.715
		c0.333-0.594,0.701-1.163,1.095-1.715c0.513-0.72,1.075-1.4,1.682-2.039c1.653-1.739,3.633-3.157,5.845-4.158
		c2.341-1.06,4.93-1.665,7.662-1.665c8.557,0,15.768,5.797,17.96,13.664c0.444,1.592,0.699,3.263,0.699,4.995
		c0,9.51-7.156,17.366-16.364,18.503c0.043,0.516,0.079,1.034,0.079,1.561c0,0.094-0.013,0.184-0.014,0.277
		c-0.013,0.865-0.096,1.711-0.223,2.544C133.839,167.57,126.112,174.457,116.785,174.457z"/>
	<path d="M119.562,148.57c-0.607-0.639-1.169-1.319-1.682-2.039c-0.393-0.552-0.762-1.121-1.095-1.715
		c-0.332,0.594-0.701,1.163-1.095,1.715c-0.513,0.72-1.075,1.4-1.682,2.039c-2.806,2.952-6.562,4.978-10.776,5.6
		c-0.064,0.535-0.106,1.076-0.106,1.628c0,0.079,0.01,0.156,0.012,0.235c0.015,0.854,0.099,1.691,0.263,2.5
		c1.267,6.233,6.777,10.924,13.384,10.924s12.117-4.691,13.384-10.924c0.164-0.809,0.248-1.646,0.263-2.5
		c0.001-0.079,0.012-0.156,0.012-0.235c0-0.552-0.042-1.093-0.106-1.628C126.123,153.548,122.368,151.522,119.562,148.57z"/>
	<path d="M86.992,148.57c-0.607-0.639-1.169-1.32-1.682-2.039c-0.393-0.552-0.762-1.121-1.095-1.715
		c-0.333,0.594-0.701,1.163-1.095,1.715c-0.513,0.72-1.075,1.4-1.682,2.039c-2.806,2.952-6.562,4.978-10.776,5.6
		c-0.064,0.535-0.106,1.076-0.106,1.628c0,0.079,0.01,0.156,0.012,0.235c0.015,0.854,0.099,1.691,0.263,2.5
		c1.267,6.233,6.777,10.924,13.384,10.924s12.117-4.691,13.384-10.924c0.164-0.809,0.248-1.646,0.263-2.5
		c0.001-0.079,0.012-0.156,0.012-0.235c0-0.552-0.042-1.093-0.106-1.628C93.554,153.548,89.799,151.522,86.992,148.57z"/>
	<path d="M146.728,135.734c0-2.088-0.482-4.059-1.32-5.828c-2.189-4.624-6.883-7.83-12.339-7.83c-1.044,0-2.056,0.128-3.033,0.349
		c-3.27,0.742-6.087,2.656-7.999,5.279c-0.685,0.94-1.253,1.967-1.683,3.067c-0.602,1.54-0.944,3.21-0.944,4.963
		c0,0.552,0.042,1.093,0.106,1.628c0.107,0.904,0.301,1.78,0.576,2.62c0.079,0.242,0.17,0.479,0.262,0.715
		c0.316,0.808,0.706,1.576,1.162,2.3c0.165,0.262,0.339,0.517,0.521,0.767c1.572,2.155,3.755,3.828,6.3,4.769
		c1.028,0.38,2.108,0.65,3.234,0.773c0.492,0.054,0.991,0.086,1.497,0.086c0.404,0,0.801-0.026,1.196-0.06
		C141.247,148.726,146.728,142.874,146.728,135.734z"/>
	<path d="M78.963,143.765c0.182-0.25,0.356-0.505,0.521-0.767c0.456-0.724,0.846-1.493,1.162-2.3
		c0.092-0.236,0.183-0.473,0.262-0.715c0.275-0.841,0.469-1.717,0.576-2.62c0.064-0.535,0.106-1.076,0.106-1.628
		c0-0.564-0.045-1.116-0.111-1.661c-0.14-1.152-0.425-2.257-0.833-3.302c-0.43-1.1-0.998-2.127-1.683-3.067
		c-2.066-2.834-5.191-4.835-8.798-5.43c-0.729-0.12-1.471-0.198-2.234-0.198c-2.447,0-4.738,0.652-6.724,1.778
		c-3.536,2.006-6.079,5.542-6.746,9.71c-0.113,0.709-0.189,1.43-0.189,2.171c0,7.14,5.481,12.992,12.463,13.599
		c0.395,0.034,0.792,0.06,1.196,0.06c0.507,0,1.005-0.032,1.497-0.086c1.127-0.123,2.207-0.393,3.234-0.773
		C75.207,147.593,77.391,145.92,78.963,143.765z"/>
	<path d="M111.532,143.765c0.182-0.25,0.356-0.505,0.521-0.767c0.457-0.724,0.846-1.493,1.162-2.301
		c0.092-0.236,0.183-0.473,0.262-0.715c0.275-0.841,0.469-1.717,0.576-2.62c0.064-0.535,0.106-1.076,0.106-1.628
		c0-1.753-0.342-3.423-0.944-4.963c-0.43-1.1-0.998-2.128-1.683-3.067c-1.222-1.675-2.807-3.066-4.651-4.042
		c-1.905-1.009-4.075-1.586-6.38-1.586c-4.538,0-8.548,2.222-11.032,5.628c-0.685,0.94-1.253,1.967-1.683,3.067
		c-0.32,0.819-0.563,1.676-0.72,2.563c-0.139,0.781-0.224,1.58-0.224,2.4c0,0.552,0.042,1.093,0.106,1.628
		c0.107,0.904,0.301,1.78,0.576,2.62c0.079,0.242,0.17,0.479,0.262,0.715c0.316,0.808,0.706,1.576,1.162,2.301
		c0.165,0.262,0.339,0.517,0.521,0.767c1.572,2.155,3.755,3.828,6.3,4.769c1.028,0.38,2.108,0.651,3.235,0.773
		c0.1,0.011,0.201,0.017,0.301,0.025c0.395,0.034,0.792,0.06,1.196,0.06s0.801-0.026,1.196-0.06c0.1-0.009,0.201-0.015,0.301-0.025
		c1.127-0.123,2.207-0.393,3.235-0.773C107.777,147.593,109.96,145.92,111.532,143.765z"/>
</g>
</svg>
