<?xml version="1.0" encoding="iso-8859-1"?>
<!-- Generator: Adobe Illustrator 17.1.0, SVG Export Plug-In . SVG Version: 6.00 Build 0)  -->
<!DOCTYPE svg PUBLIC "-//W3C//DTD SVG 1.1//EN" "http://www.w3.org/Graphics/SVG/1.1/DTD/svg11.dtd">
<svg version="1.1" id="Capa_1" xmlns="http://www.w3.org/2000/svg" xmlns:xlink="http://www.w3.org/1999/xlink" x="0px" y="0px"
	 viewBox="0 0 200 200" style="enable-background:new 0 0 200 200;" xml:space="preserve">
<g>
	<path d="M100,97.984c8.841,0,17.084-2.54,24.057-6.917c-7.386,1.344-15.025,1.82-22.372,2.095
		c-0.107,0.004-0.212,0.006-0.316,0.006c-4.265,0-7.542-3.264-7.622-7.591c-0.082-4.386,3.241-7.948,7.565-8.11
		c15.931-0.596,30.983-1.931,40.266-10.706c-2.281-2.501-3.626-5.811-3.626-9.357V40.22c0-2.96,0.938-5.701,2.522-7.958
		C133.008,17.478,117.694,7.333,100,7.333c-25.032,0-45.325,20.293-45.325,45.325C54.675,77.691,74.968,97.984,100,97.984z"/>
	<path d="M32,186.089c1.076,0.293,2.202,0.463,3.369,0.463H42h5.75h10h5.75h10h6.75h10h7.357h5.111h7.907h10h6.75h10h5.75h10h5.75
		h5.756c1.489,0,2.913-0.267,4.244-0.734c5.014-1.759,8.625-6.528,8.625-12.135v-58.064c0-5.607-3.611-10.375-8.625-12.135
		c-1.331-0.467-2.755-0.734-4.244-0.734h-5.482h-6.024h-2.74h-5.74c-1.749-0.979-3.757-1.926-5.986-2.879
		c-5.268-2.253-10.474-3.921-10.693-3.991c-0.501-0.16-1.013-0.237-1.52-0.237c-1.603,0-3.148,0.773-4.101,2.139
		c-0.105,0.151-1.393,2.004-3.286,4.967H80.94c-1.892-2.963-3.18-4.816-3.286-4.967c-0.953-1.366-2.498-2.139-4.101-2.139
		c-0.506,0-1.018,0.077-1.52,0.237c-0.219,0.07-5.425,1.738-10.693,3.991c-2.229,0.953-4.237,1.9-5.986,2.879H50.49h-2.74h-6.024
		h-6.357c-1.167,0-2.293,0.17-3.369,0.463c-5.464,1.486-9.5,6.478-9.5,12.406v58.064C22.5,179.611,26.536,184.603,32,186.089z
		 M67.586,102.75c3.353-1.271,5.968-2.106,5.968-2.106s0.534,0.766,1.421,2.106c0.455,0.688,1.005,1.53,1.626,2.5
		c0.486,0.759,1.013,1.594,1.576,2.5C84.208,117.467,94,134.986,94,146.307l-36.122-32.033c-1.136-0.237-2.031-0.507-2.727-0.804
		c-2.094-0.892-2.325-2.03-1.417-3.258c0.589-0.797,1.656-1.632,3.001-2.463c1.381-0.853,3.053-1.702,4.802-2.5
		C63.565,104.324,65.692,103.467,67.586,102.75z M125.025,102.75c0.887-1.34,1.421-2.106,1.421-2.106s2.615,0.835,5.968,2.106
		c1.893,0.718,4.021,1.575,6.048,2.5c1.75,0.798,3.421,1.647,4.802,2.5c1.887,1.166,3.225,2.34,3.466,3.406
		c0.134,0.594-0.076,1.155-0.722,1.661c-0.716,0.561-1.963,1.057-3.886,1.458L106,146.307c0-11.321,9.792-28.84,15.823-38.558
		c0.562-0.906,1.09-1.741,1.576-2.5C124.02,104.279,124.57,103.437,125.025,102.75z M153.125,107.75v73.802h-10v-61.483l1.38-1.224
		c4.644-1.26,7.084-3.617,7.261-7.021c0.078-1.495-0.328-2.835-1.12-4.074H153.125z M168.875,180.299
		c-1.226,0.789-2.68,1.253-4.244,1.253h-5.756V107.75h5.756c1.563,0,3.018,0.464,4.244,1.253V180.299z M97.694,181.551
		c-0.221-12.206-1.665-25.68-5.461-29.476c-0.402-0.402-0.629-0.907-0.7-1.43c0.758,0.431,1.608,0.662,2.469,0.662
		c0.694,0,1.392-0.144,2.05-0.44c0.384-0.173,0.731-0.398,1.051-0.652c1.495,2.254,2.61,5.396,3.429,8.996
		c0.994-4.503,2.005-7.29,2.647-8.788c0.243,0.166,0.496,0.32,0.771,0.443c0.657,0.296,1.356,0.44,2.05,0.44
		c0.864,0,1.717-0.232,2.478-0.666c-0.042,0.314-0.144,0.626-0.312,0.917c-0.09,0.163-4.178,7.782-5.351,29.993H97.694z
		 M63.5,125.943l10,8.868v46.74h-10V125.943z M80.25,140.797l10,8.868v31.886h-10V140.797z M110.625,148.889l10-8.868v41.53h-10
		V148.889z M127.375,134.035l10-8.868v56.384h-10V134.035z M55.495,118.844l2.255,2v60.707h-10V107.75h1.604
		c-0.793,1.238-1.198,2.578-1.12,4.074C48.411,115.227,50.851,117.585,55.495,118.844z M42,181.551h-6.631
		c-1.207,0-2.346-0.281-3.369-0.768v-72.265c1.023-0.487,2.162-0.768,3.369-0.768H42V181.551z"/>
	<path d="M148.987,65.82c-2.551,3.593-5.683,6.38-9.199,8.559c-10.909,6.757-25.55,7.607-38.289,8.084
		c-3.622,0.135-3.677,5.705-0.13,5.705c0.043,0,0.086-0.001,0.13-0.002c10.337-0.387,21.601-1.173,31.567-4.522
		c9.434-3.17,17.704-8.636,22.91-18.258c0.024-0.045,0.034-0.089,0.056-0.134c2.802-1.497,4.711-4.449,4.711-7.848V40.22
		c0-4.913-3.982-8.895-8.895-8.895c-4.369,0-7.995,3.153-8.745,7.306c-0.093,0.517-0.15,1.046-0.15,1.59v17.183
		c0,1.743,0.505,3.367,1.372,4.738C145.403,63.846,147.043,65.16,148.987,65.82z"/>
</g>
</svg>
