<?xml version="1.0" encoding="iso-8859-1"?>
<!-- Generator: Adobe Illustrator 17.1.0, SVG Export Plug-In . SVG Version: 6.00 Build 0)  -->
<!DOCTYPE svg PUBLIC "-//W3C//DTD SVG 1.1//EN" "http://www.w3.org/Graphics/SVG/1.1/DTD/svg11.dtd">
<svg version="1.1" id="Capa_1" xmlns="http://www.w3.org/2000/svg" xmlns:xlink="http://www.w3.org/1999/xlink" x="0px" y="0px"
	 viewBox="0 0 200 200" style="enable-background:new 0 0 200 200;" xml:space="preserve">
<g>
	<path d="M174,175.773h-41.57l15.022-22.407l-3.486-3.78l-3.485-3.779l-20.09,29.966H99.077l20.296-30.273h20.825l-5.234-5.676
		c-1.265-0.114-2.5-0.426-3.683-0.93l-7.978-3.395h-73.31H49.98H28c-2.761,0-5,2.238-5,5s2.239,5,5,5h12.628l-20.296,30.273H10
		c-2.761,0-5,2.238-5,5s2.239,5,5,5h12.982c0.005,0,0.009,0.001,0.014,0.001c0.005,0,0.011-0.001,0.016-0.001H174
		c2.761,0,5-2.238,5-5S176.761,175.773,174,175.773z M52.667,145.5h21.314l-20.296,30.273H32.372L52.667,145.5z M86.02,145.5h21.314
		l-20.296,30.273H65.725L86.02,145.5z"/>
	<path d="M185,135.5h-20.745l9.091,9.857c0.042,0.046,0.078,0.096,0.119,0.143H185c2.761,0,5-2.238,5-5S187.761,135.5,185,135.5z"/>
	<path d="M87.655,42.811c0,6.476,5.269,11.745,11.745,11.745c2.36,0,4.556-0.706,6.399-1.909l2.436-2.121
		c1.807-2.066,2.911-4.761,2.911-7.715c0-6.476-5.269-11.745-11.745-11.745C92.923,31.066,87.655,36.335,87.655,42.811z"/>
	<path d="M120.813,48.047c-1.009,0-1.95,0.28-2.759,0.76c-0.01-0.002-0.017-0.009-0.027-0.011c-0.018-0.003-0.036-0.004-0.054-0.004
		c-0.087,0-0.173,0.031-0.239,0.089l-6.05,5.269l-2.851,2.483l-9.672,8.424c-0.089,0.077-0.128,0.191-0.119,0.303
		c-0.663,0.524-1.214,1.209-1.583,2.033l-5.854,13.093l-13.227-7.005c-0.809-0.429-1.678-0.632-2.534-0.632
		c-1.945,0-3.824,1.049-4.798,2.887c-1.402,2.647-0.393,5.93,2.255,7.332l18.351,9.719c0.79,0.418,1.663,0.631,2.539,0.631
		c0.595,0,1.192-0.098,1.766-0.295c1.419-0.489,2.573-1.545,3.186-2.915l6.183-13.828l10.425,18.16l-13.452,16.557
		c-1.432,1.763-1.953,4.096-1.406,6.301c0.547,2.204,2.098,4.024,4.188,4.913l28.159,11.983c0.924,0.393,1.884,0.58,2.829,0.58
		c0.356,0,0.71-0.027,1.06-0.079l0.651,0.705l5.567,6.037l3.485,3.779L147,145.5l3.316,3.596l8.721,9.457
		c1.426,1.546,3.369,2.329,5.318,2.329c1.753,0,3.511-0.634,4.901-1.915c2.936-2.708,3.121-7.284,0.414-10.219l-2.994-3.247
		l-9.222-10l-10.731-11.637V97.931c0-0.798-0.134-1.563-0.373-2.281c0.066-0.123,0.104-0.198,0.108-0.206
		c0.053-0.111,0.047-0.241-0.017-0.346l-22.098-36.203h16.801l12.792,20.861c1.023,1.669,2.805,2.589,4.629,2.589
		c0.967,0,1.946-0.258,2.83-0.801c2.554-1.566,3.355-4.906,1.789-7.46l-14.379-23.449c-0.986-1.608-2.737-2.588-4.624-2.588H120.813
		z M127.015,103.613c1.795,0.646,3.545,0.992,5.242,1.037v13.508l-12.677-5.395L127.015,103.613z"/>
</g>
</svg>
