<?xml version="1.0" encoding="iso-8859-1"?>
<!-- Generator: Adobe Illustrator 17.1.0, SVG Export Plug-In . SVG Version: 6.00 Build 0)  -->
<!DOCTYPE svg PUBLIC "-//W3C//DTD SVG 1.1//EN" "http://www.w3.org/Graphics/SVG/1.1/DTD/svg11.dtd">
<svg version="1.1" id="Capa_1" xmlns="http://www.w3.org/2000/svg" xmlns:xlink="http://www.w3.org/1999/xlink" x="0px" y="0px"
	 viewBox="0 0 200 200" style="enable-background:new 0 0 200 200;" xml:space="preserve">
<g>
	<path d="M169.261,37.875c0.819-1.44,0.688-3.487-0.464-4.677l-17.65-18.239c-1.152-1.191-2.949-1.123-4.116,0.053
		c-17.074,17.209-37.784,4.698-44.675-0.354c-1.336-0.98-3.377-0.979-4.713,0.001c-6.892,5.052-27.601,17.561-44.674,0.354
		c-1.167-1.176-2.964-1.244-4.116-0.053L31.203,33.197c-1.152,1.191-1.283,3.237-0.464,4.677c3.922,6.894,12.466,27.596-3.482,58.07
		c-21.643,41.356,19.036,64.533,36.372,72.096c13.126,5.726,28.036,14.999,33.857,18.733c1.395,0.895,3.634,0.895,5.029,0
		c5.821-3.734,20.731-13.007,33.857-18.733c17.336-7.562,58.015-30.74,36.372-72.096C156.795,65.47,165.339,44.768,169.261,37.875z
		 M162.222,125.424c-2.445,6.942-9.966,20.08-32.864,30.068c-10.069,4.393-21.57,11.547-26.047,14.419
		c-0.924,0.592-2.099,0.918-3.31,0.918s-2.386-0.326-3.31-0.918c-4.478-2.872-15.979-10.026-26.047-14.419
		c-22.898-9.988-30.419-23.126-32.864-30.068c-3.256-9.244-2.149-19.2,3.291-29.594c11.742-22.436,5.84-37.462,2.757-42.88
		c-1.216-2.138-0.906-4.923,0.738-6.622l13.761-14.22c0.894-0.924,2.085-1.433,3.352-1.433c1.281,0,2.499,0.516,3.428,1.452
		c4.022,4.054,8.688,6.109,13.868,6.109c0.001,0,0.001,0,0.002,0c7.809,0,14.986-4.644,17.709-6.64
		c1.859-1.362,4.772-1.362,6.63-0.001c2.724,1.997,9.901,6.641,17.707,6.641c0.001,0,0.001,0,0.002,0
		c5.182,0,9.849-2.056,13.87-6.109c0.929-0.937,2.146-1.453,3.428-1.453c1.268,0,2.458,0.509,3.353,1.433l13.761,14.221
		c1.644,1.698,1.955,4.483,0.738,6.621c-3.083,5.418-8.984,20.444,2.757,42.88C164.371,106.224,165.478,116.18,162.222,125.424z"/>
	<path d="M151.828,50.477c0.13-0.228,0.084-0.583,0.012-0.675l-13.549-14.001c-4.965,4.935-10.771,7.434-17.267,7.435
		c0,0-0.002,0-0.003,0c-8.949,0-16.787-4.766-20.663-7.608c-0.121-0.088-0.598-0.089-0.718,0.001
		c-3.875,2.84-11.713,7.606-20.665,7.607c-0.001,0-0.002,0-0.002,0c-6.496,0-12.303-2.501-17.265-7.435L48.157,49.805
		c-0.069,0.088-0.115,0.444,0.015,0.672c3.488,6.132,10.211,23.053-2.673,47.671c-4.77,9.115-5.78,17.733-3.004,25.615
		c5.257,14.925,22.834,23.956,30.147,27.146c10.398,4.537,22.169,11.856,26.748,14.793c0.068,0.044,0.285,0.127,0.611,0.127
		s0.542-0.083,0.611-0.127c4.578-2.937,16.349-10.256,26.748-14.793c7.313-3.19,24.89-12.221,30.147-27.146
		c2.776-7.882,1.765-16.5-3.004-25.615C141.617,73.529,148.34,56.609,151.828,50.477z M135.422,88.336l-20.329,14.77l7.765,23.898
		c0.863,2.656-0.269,3.479-2.529,1.837L100,114.072l-20.329,14.77c-2.26,1.642-3.392,0.819-2.529-1.837l7.765-23.898l-20.329-14.77
		c-2.26-1.642-1.827-2.973,0.966-2.973h25.128l7.765-23.898c0.863-2.657,2.263-2.657,3.126,0l7.765,23.898h25.128
		C137.249,85.363,137.682,86.694,135.422,88.336z"/>
</g>
</svg>
