<?xml version="1.0" encoding="iso-8859-1"?>
<!-- Generator: Adobe Illustrator 17.1.0, SVG Export Plug-In . SVG Version: 6.00 Build 0)  -->
<!DOCTYPE svg PUBLIC "-//W3C//DTD SVG 1.1//EN" "http://www.w3.org/Graphics/SVG/1.1/DTD/svg11.dtd">
<svg version="1.1" id="Capa_1" xmlns="http://www.w3.org/2000/svg" xmlns:xlink="http://www.w3.org/1999/xlink" x="0px" y="0px"
	 viewBox="0 0 200 200" style="enable-background:new 0 0 200 200;" xml:space="preserve">
<g>
	<path d="M189.901,40.472l-36.372,17.563c-0.746,0.36-1.112,1.28-0.859,2.069c2.543,7.936,0.883,13.86-2.648,18.267
		c2.999,7.636,4.558,15.91,4.558,24.405l-0.001,0.133c-0.012,0.713-0.244,8.117-4.03,18.309c4.782-2.102,7.812-6.557,9.088-8.786
		c0.412-0.719,1.369-1.321,2.196-1.383c12.945-0.972,16.824-14.471,17.766-19.011c0.168-0.811,0.915-1.631,1.708-1.869
		c24.276-7.291,13.183-41.568,10.479-48.947C191.503,40.444,190.647,40.112,189.901,40.472z"/>
	<path d="M48.118,60.104c0.253-0.789-0.113-1.709-0.859-2.069L10.886,40.472c-0.746-0.36-1.601-0.028-1.886,0.75
		C6.296,48.601-4.797,82.878,19.479,90.169c0.793,0.238,1.54,1.058,1.709,1.869c0.942,4.54,4.821,18.039,17.766,19.011
		c0.826,0.062,1.784,0.664,2.195,1.383c1.259,2.198,4.225,6.56,8.894,8.696c-3.754-10.145-3.984-17.508-3.996-18.219l-0.001-0.133
		c0-8.541,1.579-16.86,4.611-24.533C47.198,73.851,45.599,67.961,48.118,60.104z"/>
	<path d="M141.007,72.927l-1.687-2.754l-39.007-8.243l-39.007,8.242l-1.686,2.754c-1.839,3.002-3.387,6.175-4.646,9.474
		c-2.583,6.767-3.929,14.072-3.929,21.565l0.001,0.133c0.012,0.684,0.244,8.175,4.289,18.257
		c5.164,12.871,16.542,29.967,41.619,42.524l3.358,1.682l3.358-1.682c25.073-12.555,36.452-29.649,41.616-42.52
		c4.046-10.085,4.279-17.577,4.291-18.261l0.001-0.133c0-7.457-1.334-14.728-3.893-21.469
		C144.422,79.162,142.862,75.957,141.007,72.927z M134.58,103.845c-0.032,0.778-0.352,5.743-3.036,12.559
		c-3.775,9.585-12.237,22.835-31.23,33.299c-18.937-10.432-27.403-23.631-31.195-33.199c-2.755-6.95-3.048-11.987-3.073-12.636
		c0.01-5.227,0.891-10.307,2.556-15.044c0.646-1.836,1.399-3.625,2.281-5.344l29.43-6.218l29.429,6.218
		c0.889,1.732,1.646,3.535,2.296,5.386C133.692,93.583,134.567,98.642,134.58,103.845z"/>
</g>
</svg>
