<?xml version="1.0" encoding="iso-8859-1"?>
<!-- Generator: Adobe Illustrator 17.1.0, SVG Export Plug-In . SVG Version: 6.00 Build 0)  -->
<!DOCTYPE svg PUBLIC "-//W3C//DTD SVG 1.1//EN" "http://www.w3.org/Graphics/SVG/1.1/DTD/svg11.dtd">
<svg version="1.1" id="Capa_1" xmlns="http://www.w3.org/2000/svg" xmlns:xlink="http://www.w3.org/1999/xlink" x="0px" y="0px"
	 viewBox="0 0 200 200" style="enable-background:new 0 0 200 200;" xml:space="preserve">
<g>
	<path d="M33.754,162.304h6.367v30.029l36.829-30.029h71.832c8.433,0,15.269-6.836,15.269-15.269v-25.957
		c-6.245,7.111-15.001,10.957-25.274,10.957c-2.292,0-4.685-0.193-7.111-0.575c-16.115-2.534-27.031-12.791-31.567-29.663
		c-3.257-12.112-2-23.381-1.944-23.855c0.284-2.439,2.298-4.306,4.751-4.412c0.073-0.003,0.146-0.005,0.218-0.005
		c0.366,0,0.724,0.04,1.071,0.116c0.976-4.985,3.257-10.011,6.826-15.051H33.754c-8.433,0-15.269,6.836-15.269,15.269v73.174
		C18.484,155.468,25.321,162.304,33.754,162.304z"/>
	<path d="M115.247,94.817c-9.042-0.928-12.126-16.297-12.126-16.297s-3.944,33.919,19.553,45.059
		c-2.59-5.164-2.439-11.848,0.245-16.405c5.295-8.988,1.317-14.428,1.317-14.428c11.211,4.222,5.156,14.708,5.156,14.708
		s9.887-2.341,2.733-15.561s0.944-18.917,0.944-18.917s-5.519,8.129,8.858,21.255s4.648,21.426,4.648,21.426
		c4.376-0.435,5.892-7.865,5.892-7.865s1.237,11.017-4.576,17.943c7.405-2.238,12.768-7.184,16.158-13.324
		c5.956-10.785,5.853-25.218,0.151-34.968c-0.053-0.091-0.099-0.179-0.151-0.269c-3.275-5.677-4.775-10.66-5.273-14.837
		c-1.121-9.399,2.797-14.725,2.797-14.725c-7.31,2.726-11.076,6.749-12.813,10.981c-3.775,9.199,2.058,19.386,2.058,19.386
		s-13.638-3.285-10.491-19.386c0.702-3.594,2.231-7.818,4.945-12.796c14.874-27.278-1.824-39.108-1.824-39.108
		s11.354,16.839-18.451,43.875c-3.069,2.784-5.601,5.461-7.689,8.029C99.117,80.96,115.247,94.817,115.247,94.817z"/>
</g>
</svg>
