<?xml version="1.0" encoding="iso-8859-1"?>
<!-- Generator: Adobe Illustrator 17.1.0, SVG Export Plug-In . SVG Version: 6.00 Build 0)  -->
<!DOCTYPE svg PUBLIC "-//W3C//DTD SVG 1.1//EN" "http://www.w3.org/Graphics/SVG/1.1/DTD/svg11.dtd">
<svg version="1.1" id="Capa_1" xmlns="http://www.w3.org/2000/svg" xmlns:xlink="http://www.w3.org/1999/xlink" x="0px" y="0px"
	 viewBox="0 0 200 200" style="enable-background:new 0 0 200 200;" xml:space="preserve">
<g>
	<polygon points="110.709,79.732 100,61.915 89.291,79.732 66.206,79.732 77.749,98.937 66.206,118.142 89.291,118.142 100,135.959 
		110.709,118.142 133.794,118.142 122.251,98.937 133.794,79.732 	"/>
	<path d="M174.544,64.328c4.013,0,7.267-3.253,7.267-7.266c0-4.013-3.253-7.266-7.267-7.266c-3.856,0-7.001,3.006-7.243,6.801
		h-43.653l-19.91-33.126c2.111-1.271,3.527-3.578,3.527-6.222c0-4.013-3.253-7.266-7.266-7.266s-7.266,3.253-7.266,7.266
		c0,2.643,1.416,4.95,3.527,6.222l-19.91,33.126H32.698c-0.241-3.795-3.387-6.801-7.243-6.801c-4.013,0-7.267,3.253-7.267,7.266
		c0,4.013,3.253,7.266,7.267,7.266c1.455,0,2.808-0.432,3.944-1.169l21.504,35.778l-21.504,35.778
		c-1.136-0.737-2.489-1.169-3.944-1.169c-4.013,0-7.267,3.253-7.267,7.266s3.253,7.266,7.267,7.266c3.856,0,7.001-3.006,7.243-6.801
		h43.653l19.91,33.126c-2.111,1.271-3.527,3.578-3.527,6.222c0,4.013,3.253,7.266,7.266,7.266s7.266-3.253,7.266-7.266
		c0-2.643-1.416-4.95-3.527-6.222l19.91-33.126h43.653c0.241,3.795,3.387,6.801,7.243,6.801c4.013,0,7.267-3.253,7.267-7.266
		s-3.253-7.266-7.267-7.266c-1.455,0-2.808,0.432-3.944,1.169l-21.504-35.778l21.504-35.778
		C171.737,63.896,173.089,64.328,174.544,64.328z M142.632,123.142h-29.095L100,145.666l-13.537-22.524H57.368l14.547-24.205
		L57.368,74.732h29.095L100,52.208l13.537,22.524h29.095l-14.547,24.204L142.632,123.142z"/>
</g>
</svg>
