<?xml version="1.0" encoding="iso-8859-1"?>
<!-- Generator: Adobe Illustrator 17.1.0, SVG Export Plug-In . SVG Version: 6.00 Build 0)  -->
<!DOCTYPE svg PUBLIC "-//W3C//DTD SVG 1.1//EN" "http://www.w3.org/Graphics/SVG/1.1/DTD/svg11.dtd">
<svg version="1.1" id="Capa_1" xmlns="http://www.w3.org/2000/svg" xmlns:xlink="http://www.w3.org/1999/xlink" x="0px" y="0px"
	 viewBox="0 0 200 200" style="enable-background:new 0 0 200 200;" xml:space="preserve">
<g>
	<path d="M187.294,75.739l-4.714-1.005c-0.598-0.795-1.238-1.557-1.967-2.254c-0.358-0.342-0.748-0.652-1.135-0.964
		c-3.87-3.111-9.168-4.704-15.809-4.704h-6.257h-11.991l-10.584-2.256L105.563,16.12c-1.536-2.542-3.55-3.812-5.563-3.812
		s-4.027,1.271-5.563,3.812L65.163,64.556l-10.584,2.256H42.588h-11.99H18.355c-2.283,0-4.187,1.539-4.786,3.63
		c-0.125,0.438-0.214,0.891-0.214,1.37v1.232v2.556l-0.649,0.138c-5.809,1.238-7.062,5.594-2.797,9.729l20.361,19.743v3.483v3.482
		v13.31c0,2.761,2.239,5,5,5h7.934h2.524h2.524l-7.22,51.829c-0.605,4.345,1.234,6.928,4.386,6.928c1.115,0,2.395-0.323,3.789-1.006
		L100,163.366l50.792,24.871c1.394,0.682,2.674,1.006,3.789,1.006c3.153,0,4.992-2.582,4.386-6.928l-7.22-51.829h1.01
		c0.519,0,1.009-0.101,1.48-0.248c0.913-0.284,1.706-0.816,2.312-1.526c0.743-0.873,1.209-1.99,1.209-3.226v-1.702v-3.481v-3.483
		l6.528-6.33c1.42-0.079,2.767-0.235,4.059-0.453c1.754-0.295,3.387-0.719,4.899-1.269c2.698-0.981,5.027-2.344,6.931-4.126
		c2.21-2.07,3.849-4.539,4.929-7.374c0.553-1.452,0.95-3.005,1.203-4.649c0.187-1.212,0.292-2.475,0.316-3.788l3.469-3.364
		C194.356,81.333,193.104,76.977,187.294,75.739z M180.749,94.527c-0.796,2.543-2.114,4.707-3.991,6.465
		c-1.641,1.537-3.72,2.685-6.231,3.447c-2.474,0.752-5.369,1.129-8.688,1.129h-9.08v16.099v3.818h-1.706H136.1V71.812h27.569
		c6.004,0,10.501,1.428,13.491,4.284c2.99,2.856,4.485,6.92,4.485,12.192C181.645,90.585,181.334,92.656,180.749,94.527z
		 M35.27,117.024v-3.482v-3.483V85.066H18.355V74.535v-2.556v-0.166h0.779h11.99H68.77v13.254H51.855v40.42h-2.907h-2.524H43.9
		h-8.63V117.024z M100,126.401c-6.053,0-11.063-0.964-15.029-2.892s-7.182-4.979-9.647-9.153c-2.465-4.174-3.698-9.397-3.698-15.67
		c0-8.763,2.441-15.585,7.322-20.466c4.882-4.882,11.679-7.322,20.393-7.322c8.933,0,15.816,2.398,20.649,7.194
		s7.249,11.515,7.249,20.155c0,6.273-1.056,11.417-3.167,15.432c-2.111,4.015-5.162,7.139-9.153,9.373S105.956,126.401,100,126.401z
		"/>
	<path d="M99.304,83.455c-3.344,0-6.029,1.184-8.055,3.551c-2.026,2.368-3.039,6.285-3.039,11.753c0,5.419,1.007,9.312,3.021,11.679
		c2.014,2.368,4.753,3.551,8.219,3.551c3.563,0,6.322-1.159,8.274-3.478c1.953-2.319,2.929-6.48,2.929-12.485
		c0-5.052-1.019-8.744-3.057-11.075C105.559,84.621,102.795,83.455,99.304,83.455z"/>
	<path d="M157.481,82.723h-4.723v11.972h4.064c3.197,0,5.443-0.555,6.737-1.666c1.294-1.111,1.94-2.532,1.94-4.265
		c0-1.684-0.561-3.112-1.684-4.284C162.692,83.309,160.581,82.723,157.481,82.723z"/>
</g>
</svg>
