<?xml version="1.0" encoding="iso-8859-1"?>
<!-- Generator: Adobe Illustrator 17.1.0, SVG Export Plug-In . SVG Version: 6.00 Build 0)  -->
<!DOCTYPE svg PUBLIC "-//W3C//DTD SVG 1.1//EN" "http://www.w3.org/Graphics/SVG/1.1/DTD/svg11.dtd">
<svg version="1.1" id="Capa_1" xmlns="http://www.w3.org/2000/svg" xmlns:xlink="http://www.w3.org/1999/xlink" x="0px" y="0px"
	 viewBox="0 0 200 200" style="enable-background:new 0 0 200 200;" xml:space="preserve">
<g>
	<path d="M22.971,89.368c0.32,0,0.643-0.013,0.958-0.04c0.306-0.026,0.583-0.19,0.751-0.446c0.169-0.256,0.211-0.575,0.114-0.866
		c-0.208-0.625-0.396-1.253-0.583-1.878c-0.432-1.443-0.879-2.934-1.552-4.323c-0.656-1.356-1.533-2.583-2.382-3.771
		c-0.361-0.506-0.723-1.012-1.066-1.526c-0.025-0.038-0.053-0.074-0.083-0.108l-3.611-4.078c-0.019-0.022-0.04-0.043-0.061-0.063
		c-2.572-2.437-5.64-3.235-9.454-3.683c-0.039-0.005-0.078-0.007-0.116-0.007c-0.248,0-0.489,0.092-0.674,0.261
		c-0.214,0.195-0.333,0.474-0.326,0.763C5.124,79.393,14.25,89.368,22.971,89.368z"/>
	<path d="M28.303,23.598c-0.045-0.006-0.091-0.009-0.135-0.009c-0.236,0-0.466,0.083-0.648,0.238
		c-3.894,3.309-6.479,8.747-6.915,14.546c-0.373,4.957,0.913,9.522,3.528,12.525c0.19,0.218,0.465,0.343,0.754,0.343
		c0.002,0,0.005,0,0.007,0c0.292-0.002,0.568-0.131,0.756-0.354c7.933-9.372,9.059-18.408,3.345-26.859
		C28.837,23.793,28.585,23.637,28.303,23.598z"/>
	<path d="M22.359,72.315c0.093,0.028,0.189,0.042,0.285,0.042c0.168,0,0.336-0.043,0.486-0.126c0.235-0.131,0.408-0.351,0.479-0.61
		c2.947-10.772-1.503-21.488-10.352-24.927c-0.117-0.045-0.24-0.068-0.362-0.068c-0.16,0-0.32,0.038-0.465,0.115
		c-0.256,0.134-0.441,0.373-0.508,0.654C9.295,58.437,14.074,69.85,22.359,72.315z"/>
	<path d="M23.374,108.527c0.322,0,0.646-0.014,0.962-0.041c0.29-0.025,0.554-0.175,0.725-0.411c0.17-0.236,0.229-0.534,0.162-0.817
		c-1.019-4.27-2.09-8.074-4.821-11.267c-3.511-6.155-9.563-7.599-13.812-8.15c-0.043-0.006-0.086-0.008-0.128-0.008
		c-0.245,0-0.484,0.09-0.669,0.256c-0.217,0.195-0.338,0.475-0.331,0.767C5.686,98.6,14.727,108.527,23.374,108.527z"/>
	<path d="M71.143,162.347c-0.029-0.292-0.186-0.557-0.427-0.724c-4.12-2.839-9.051-4.402-13.884-4.402
		c-5.613,0-10.454,2.11-13.283,5.788c-0.164,0.214-0.235,0.484-0.197,0.751c0.038,0.267,0.182,0.507,0.4,0.666
		c3.753,2.742,8.436,4.252,13.188,4.252c5.459,0,10.536-2.018,13.929-5.538C71.072,162.929,71.173,162.639,71.143,162.347z"/>
	<path d="M55.368,151.926c0.002-0.302-0.133-0.59-0.367-0.781c-4.573-3.735-9.998-5.792-15.274-5.792
		c-4.657,0-8.778,1.565-11.918,4.525c-0.206,0.194-0.32,0.467-0.314,0.75s0.132,0.55,0.347,0.735
		c4.194,3.616,9.428,5.607,14.739,5.607c4.607,0,8.899-1.476,12.41-4.269C55.228,152.514,55.366,152.229,55.368,151.926z"/>
	<path d="M33.335,127.179c0.273-0.074,0.503-0.26,0.631-0.512s0.144-0.547,0.043-0.812c-1.794-4.679-4.632-7.999-8.675-10.149
		l-0.135-0.089l-2.012-1.323c-2.169-1.618-4.643-2.372-7.782-2.372c-1.614,0-3.262,0.194-4.95,0.411
		c-0.299,0.038-0.564,0.209-0.723,0.465c-0.159,0.256-0.193,0.57-0.095,0.854c2.782,8.019,11.182,14.066,19.539,14.066
		C30.609,127.717,32.008,127.536,33.335,127.179z"/>
	<path d="M30.346,51.795c-0.512,0.939-0.656,1.985-0.795,2.997c-0.059,0.427-0.114,0.831-0.196,1.213
		c-0.056,0.263-0.003,0.537,0.145,0.76c0.148,0.224,0.381,0.378,0.644,0.429c0.405,0.078,0.826,0.198,1.273,0.325
		c0.84,0.239,1.708,0.486,2.594,0.486c0.257,0,0.506-0.021,0.742-0.064c5.957-1.066,10.897-4.215,14.681-9.361
		c0.539-0.733,0.864-1.587,1.178-2.413c0.142-0.373,0.289-0.76,0.456-1.136c0.112-0.254,0.114-0.543,0.005-0.798
		s-0.32-0.453-0.581-0.547c-1.463-0.525-3.051-0.792-4.72-0.792C39.548,42.894,33.204,46.554,30.346,51.795z"/>
	<path d="M39.485,129.478c0.134,0,0.269-0.027,0.398-0.083c5.358-2.33,6.884-7.121,7.565-10.521
		c0.731-3.647,0.597-7.439,0.37-10.667c-0.128-1.819-1.16-3.042-2.569-3.042c-0.625,0-1.584,0.254-2.599,1.462
		c-0.276,0.328-0.558,0.657-0.841,0.988c-1.635,1.906-3.326,3.877-4.222,6.205c-1.616,4.196-2.952,9.722,1.091,15.248
		C38.871,129.333,39.174,129.478,39.485,129.478z"/>
	<path d="M28.83,110.637c0.05,0.262,0.202,0.493,0.424,0.641c0.166,0.112,0.361,0.171,0.559,0.171c0.065,0,0.13-0.006,0.195-0.019
		c0.378-0.075,0.786-0.121,1.217-0.17c1.046-0.118,2.127-0.24,3.06-0.805c5.594-3.39,9.098-8.517,10.416-15.24
		c0.145-0.74,0.039-1.471-0.094-2.397c-0.072-0.496-0.153-1.059-0.217-1.745c-0.032-0.339-0.233-0.638-0.535-0.794
		c-0.144-0.075-0.302-0.112-0.46-0.112c-0.172,0-0.344,0.044-0.497,0.132l-3.988,2.286l-2.811,1.611
		c-0.092,0.023-0.181,0.059-0.266,0.108c-4.109,2.409-6.636,6.255-7.724,11.759c-0.223,1.127,0.095,2.241,0.403,3.319
		C28.635,109.823,28.754,110.239,28.83,110.637z"/>
	<path d="M52.471,143.455c1.387,0,2.336-1.236,3.008-2.313c2.578-4.132,3.294-8.918,2.252-15.062
		c-0.279-1.648-0.925-3.183-1.608-4.808c-0.311-0.738-0.632-1.501-0.925-2.295c-0.108-0.291-0.345-0.516-0.641-0.608
		c-0.097-0.03-0.197-0.045-0.297-0.045c-0.204,0-0.406,0.062-0.576,0.183c-3.38,2.383-5.815,6.747-6.514,11.674
		c-0.633,4.462,0.275,8.733,2.429,11.424C50.29,142.466,51.24,143.455,52.471,143.455z"/>
	<path d="M64.415,129.794c-0.185-0.154-0.413-0.233-0.641-0.233c-0.196,0-0.393,0.057-0.563,0.174
		c-2.759,1.882-4.411,5.453-4.653,10.057c-0.286,5.443,1.526,10.951,4.406,13.396c0.852,0.723,1.592,1.06,2.328,1.06
		c1.437,0,2.258-1.316,2.528-1.749c2.329-3.735,2.157-7.867,1.825-10.651C69.152,137.718,68.301,133.041,64.415,129.794z"/>
	<path d="M36.806,39.536c0.741,0.135,1.506,0.204,2.272,0.204c9.155,0,18.065-9.648,18.667-17.254
		c0.043-0.541-0.353-1.017-0.892-1.074c-0.575-0.06-1.159-0.091-1.736-0.091c-8.809,0-16.844,7.152-19.107,17.007
		c-0.061,0.266-0.011,0.546,0.139,0.774C36.301,39.33,36.538,39.487,36.806,39.536z"/>
	<path d="M29.22,92.74c0.162,0.01,0.325,0.014,0.489,0.014c4.707,0,9.797-3.881,12.755-7.728c2.78-3.615,3.937-7.332,3.175-10.196
		c-0.11-0.414-0.471-0.711-0.898-0.741c-0.359-0.025-0.717-0.037-1.065-0.037c-3.357,0-6.218,1.166-8.508,3.465
		c-5.362,3.117-8.548,9.89-6.828,14.569C28.478,92.46,28.823,92.716,29.22,92.74z"/>
	<path d="M29.844,75.292l0.057,0c6.903,0,15.903-7.665,17.196-14.645c0.079-0.428-0.127-0.857-0.51-1.063
		c-1.057-0.568-2.303-0.856-3.702-0.856c-6.339,0-15.479,6.335-16.499,13.064c-0.166,1.092,0.007,1.919,0.528,2.529
		C27.634,75.165,28.799,75.285,29.844,75.292z"/>
	<path d="M44.934,140.369c0.255-0.159,0.425-0.425,0.463-0.723c0.038-0.298-0.061-0.598-0.268-0.815
		c-4.814-5.053-11.006-7.951-16.987-7.951c-3.653,0-7.044,1.096-9.806,3.169c-0.223,0.167-0.365,0.42-0.394,0.697
		c-0.029,0.277,0.059,0.553,0.243,0.763c4.211,4.801,10.449,7.667,16.686,7.667C38.51,143.174,41.99,142.204,44.934,140.369z"/>
	<path d="M193.448,68.579c-0.039,0-0.078,0.002-0.116,0.007c-3.814,0.448-6.882,1.245-9.454,3.683
		c-0.021,0.02-0.042,0.041-0.061,0.063l-0.139,0.157l-3.472,3.921c-0.03,0.034-0.058,0.07-0.083,0.108
		c-0.343,0.515-0.705,1.02-1.066,1.526c-0.848,1.188-1.726,2.415-2.382,3.771c-0.672,1.389-1.119,2.881-1.552,4.323
		c-0.187,0.625-0.375,1.253-0.583,1.878c-0.097,0.291-0.055,0.61,0.114,0.866c0.169,0.256,0.446,0.42,0.751,0.446
		c0.315,0.026,0.637,0.04,0.958,0.04c8.72,0,17.847-9.975,18.085-19.764c0.007-0.29-0.112-0.568-0.326-0.763
		C193.936,68.671,193.696,68.579,193.448,68.579z"/>
	<path d="M174.439,51.241c0.002,0,0.005,0,0.007,0c0.289,0,0.564-0.125,0.754-0.343c2.615-3.003,3.9-7.568,3.528-12.525
		c-0.436-5.799-3.021-11.236-6.915-14.546c-0.182-0.155-0.412-0.238-0.648-0.238c-0.045,0-0.09,0.003-0.135,0.009
		c-0.282,0.039-0.534,0.195-0.693,0.431c-5.713,8.45-4.588,17.487,3.345,26.859C173.871,51.11,174.148,51.239,174.439,51.241z"/>
	<path d="M175.725,71.621c0.071,0.26,0.244,0.479,0.479,0.61c0.15,0.083,0.317,0.126,0.486,0.126c0.096,0,0.192-0.014,0.285-0.042
		c8.285-2.465,13.064-13.878,10.437-24.921c-0.067-0.281-0.252-0.52-0.508-0.654c-0.145-0.076-0.304-0.115-0.465-0.115
		c-0.123,0-0.245,0.023-0.362,0.068C177.228,50.132,172.778,60.849,175.725,71.621z"/>
	<path d="M192.873,87.833c-0.043,0-0.086,0.003-0.128,0.008c-8.857,1.147-12.127,5.192-13.812,8.15
		c-2.731,3.193-3.802,6.997-4.821,11.267c-0.068,0.283-0.009,0.581,0.162,0.817c0.17,0.236,0.435,0.386,0.725,0.411
		c0.316,0.027,0.64,0.041,0.962,0.041c8.648,0,17.688-9.928,17.913-19.671c0.007-0.292-0.114-0.572-0.331-0.767
		C193.357,87.923,193.118,87.833,192.873,87.833z"/>
	<path d="M142.502,157.221c-4.834,0-9.765,1.564-13.885,4.402c-0.242,0.167-0.398,0.431-0.427,0.724
		c-0.03,0.292,0.071,0.583,0.275,0.794c3.393,3.519,8.47,5.538,13.929,5.538c4.752,0,9.435-1.51,13.188-4.252
		c0.218-0.159,0.362-0.399,0.4-0.666c0.038-0.267-0.033-0.538-0.197-0.751C152.956,159.331,148.115,157.221,142.502,157.221z"/>
	<path d="M159.608,145.354c-5.278,0-10.703,2.057-15.275,5.792c-0.234,0.191-0.369,0.479-0.367,0.781s0.141,0.588,0.377,0.776
		c3.511,2.793,7.803,4.269,12.41,4.269c5.311,0,10.545-1.991,14.739-5.607c0.214-0.185,0.34-0.452,0.347-0.735
		s-0.108-0.556-0.314-0.75C168.43,146.961,164.198,145.354,159.608,145.354z"/>
	<path d="M188.878,112.332c-1.688-0.216-3.336-0.411-4.949-0.411c-3.139,0-5.613,0.754-7.782,2.372l-2.012,1.323l-0.135,0.089
		c-4.042,2.15-6.88,5.47-8.675,10.149c-0.101,0.264-0.086,0.559,0.043,0.812s0.358,0.438,0.631,0.512
		c1.327,0.357,2.726,0.538,4.158,0.538c8.357,0,16.757-6.047,19.539-14.066c0.099-0.285,0.064-0.598-0.095-0.854
		C189.442,112.541,189.177,112.371,188.878,112.332z"/>
	<path d="M148.721,46.168c0.314,0.826,0.639,1.679,1.178,2.413c3.785,5.146,8.724,8.296,14.682,9.361
		c0.236,0.042,0.485,0.064,0.742,0.064c0.886,0,1.754-0.247,2.594-0.486c0.446-0.127,0.868-0.247,1.273-0.325
		c0.264-0.051,0.496-0.206,0.644-0.429c0.148-0.224,0.2-0.498,0.145-0.76c-0.081-0.382-0.137-0.786-0.196-1.213
		c-0.139-1.012-0.283-2.059-0.795-2.997c-2.858-5.241-9.201-8.901-15.426-8.901c-1.67,0-3.258,0.266-4.72,0.792
		c-0.261,0.094-0.472,0.292-0.581,0.547s-0.108,0.544,0.005,0.798C148.432,45.408,148.579,45.795,148.721,46.168z"/>
	<path d="M159.45,129.395c0.129,0.056,0.265,0.083,0.398,0.083c0.312,0,0.615-0.146,0.808-0.41
		c4.043-5.527,2.707-11.052,1.091-15.248c-0.896-2.328-2.587-4.299-4.222-6.205c-0.283-0.331-0.566-0.659-0.841-0.988
		c-1.015-1.208-1.973-1.462-2.599-1.462c-1.408,0-2.441,1.223-2.569,3.042c-0.227,3.228-0.361,7.019,0.37,10.667
		C152.566,122.275,154.092,127.065,159.45,129.395z"/>
	<path d="M168.11,111.26c0.431,0.049,0.838,0.094,1.217,0.17c0.065,0.013,0.13,0.019,0.195,0.019c0.198,0,0.392-0.059,0.559-0.171
		c0.221-0.149,0.374-0.38,0.424-0.641c0.076-0.397,0.195-0.813,0.321-1.254c0.308-1.078,0.626-2.192,0.403-3.319
		c-1.088-5.504-3.614-9.351-7.724-11.759c-0.085-0.05-0.175-0.086-0.266-0.108l-2.811-1.611l-3.988-2.286
		c-0.154-0.088-0.325-0.132-0.497-0.132c-0.158,0-0.316,0.037-0.46,0.112c-0.302,0.156-0.504,0.456-0.535,0.794
		c-0.064,0.687-0.146,1.249-0.217,1.745c-0.134,0.926-0.239,1.657-0.094,2.397c1.317,6.723,4.822,11.85,10.415,15.24
		C165.983,111.02,167.064,111.142,168.11,111.26z"/>
	<path d="M146.862,143.455c1.232,0,2.181-0.989,2.871-1.85c2.154-2.691,3.062-6.961,2.429-11.424
		c-0.699-4.927-3.134-9.291-6.514-11.674c-0.171-0.12-0.372-0.183-0.576-0.183c-0.099,0-0.199,0.015-0.297,0.045
		c-0.296,0.092-0.533,0.317-0.641,0.608c-0.294,0.794-0.615,1.557-0.925,2.295c-0.683,1.625-1.329,3.159-1.608,4.808
		c-1.041,6.143-0.325,10.929,2.252,15.062C144.526,142.219,145.475,143.455,146.862,143.455z"/>
	<path d="M136.123,129.735c-0.171-0.116-0.367-0.174-0.563-0.174c-0.229,0-0.457,0.078-0.641,0.233
		c-3.886,3.247-4.737,7.924-5.229,12.054c-0.332,2.784-0.504,6.916,1.826,10.651c0.27,0.433,1.091,1.749,2.528,1.749
		c0.736,0,1.476-0.337,2.328-1.06c2.88-2.444,4.692-7.953,4.406-13.396C140.534,135.188,138.882,131.617,136.123,129.735z"/>
	<path d="M162.527,39.536c0.269-0.049,0.506-0.206,0.656-0.434c0.15-0.228,0.2-0.508,0.139-0.774
		c-2.262-9.854-10.298-17.007-19.106-17.007c-0.578,0-1.162,0.031-1.736,0.091c-0.539,0.057-0.935,0.533-0.892,1.074
		c0.603,7.605,9.512,17.254,18.667,17.254C161.021,39.74,161.786,39.671,162.527,39.536z"/>
	<path d="M164.164,77.517c-2.292-2.3-5.153-3.465-8.508-3.465c-0.347,0-0.706,0.013-1.065,0.037
		c-0.427,0.029-0.788,0.327-0.898,0.741c-0.762,2.865,0.396,6.581,3.175,10.196c2.958,3.847,8.048,7.728,12.755,7.728
		c0.164,0,0.327-0.005,0.489-0.014c0.397-0.024,0.742-0.28,0.879-0.653C172.712,87.408,169.526,80.634,164.164,77.517z"/>
	<path d="M172.949,71.791c-1.02-6.729-10.159-13.064-16.498-13.064h-0.001c-1.399,0-2.645,0.288-3.702,0.856
		c-0.383,0.206-0.589,0.635-0.51,1.063c1.293,6.98,10.292,14.645,17.196,14.645l0.057,0c1.044-0.006,2.209-0.127,2.931-0.972
		C172.942,73.711,173.114,72.884,172.949,71.791z"/>
	<path d="M171.193,130.879c-5.982,0-12.174,2.898-16.988,7.951c-0.207,0.218-0.306,0.517-0.268,0.815
		c0.038,0.298,0.208,0.564,0.463,0.723c2.943,1.836,6.423,2.806,10.063,2.806c6.237,0,12.475-2.866,16.686-7.667
		c0.184-0.209,0.272-0.486,0.243-0.763c-0.029-0.277-0.172-0.529-0.394-0.697C178.236,131.975,174.845,130.879,171.193,130.879z"/>
	<path d="M132.758,175.751c-8.95-2.662-17.895-5.344-26.841-8.019c-0.529-0.158-0.965-0.485-0.973-0.729
		c-0.008-0.244,0.394-0.627,0.896-0.857c0.866-0.397,1.731-0.797,2.607-1.169c3.55-1.509,7.04-3.205,10.686-4.432
		c2.535-0.853,3.85-2.089,3.399-4.685c-0.094-0.544-0.64-0.787-1.143-0.559c-4.232,1.921-8.443,3.887-12.715,5.712
		c-2.624,1.121-5.191,3.075-8.315,1.169c-0.166-0.101-0.424-0.131-0.692-0.125c-0.268-0.006-0.526,0.024-0.692,0.125
		c-3.124,1.906-5.691-0.048-8.315-1.169c-4.272-1.825-8.483-3.791-12.715-5.712c-0.503-0.228-1.049,0.015-1.143,0.559
		c-0.451,2.596,0.864,3.833,3.399,4.685c3.646,1.227,7.136,2.922,10.686,4.432c0.876,0.373,1.741,0.772,2.607,1.169
		c0.502,0.23,0.904,0.613,0.896,0.857c-0.008,0.244-0.444,0.57-0.973,0.729c-8.947,2.675-17.891,5.357-26.841,8.019
		c-3.108,0.924-5.684,3.808-6.427,7.238c-0.117,0.54,0.217,0.858,0.683,0.698c0.288-0.099,0.566-0.197,0.84-0.304
		c10.141-3.962,20.287-7.911,30.415-11.907c2.114-0.834,4.073-1.927,6.406-0.376c0.158,0.105,0.354,0.149,0.575,0.157
		c0.333,0.012,0.866,0.012,1.198,0c0.22-0.008,0.417-0.052,0.575-0.157c2.333-1.551,4.292-0.458,6.406,0.376
		c10.127,3.996,20.274,7.945,30.415,11.907c0.274,0.107,0.552,0.205,0.84,0.304c0.466,0.16,0.8-0.158,0.683-0.698
		C138.442,179.559,135.866,176.676,132.758,175.751z"/>
</g>
</svg>
