<?xml version="1.0" encoding="iso-8859-1"?>
<!-- Generator: Adobe Illustrator 17.1.0, SVG Export Plug-In . SVG Version: 6.00 Build 0)  -->
<!DOCTYPE svg PUBLIC "-//W3C//DTD SVG 1.1//EN" "http://www.w3.org/Graphics/SVG/1.1/DTD/svg11.dtd">
<svg version="1.1" id="Capa_1" xmlns="http://www.w3.org/2000/svg" xmlns:xlink="http://www.w3.org/1999/xlink" x="0px" y="0px"
	 viewBox="0 0 200 200" style="enable-background:new 0 0 200 200;" xml:space="preserve">
<g>
	<path d="M160.5,62.333v74.333v5v36c0,1.822-0.498,3.527-1.353,5H171.5c2.761,0,5-2.239,5-5V62.333
		c0-26.95-21.325-48.909-48.02-49.95C147.36,21.104,160.5,40.208,160.5,62.333z"/>
	<path d="M155.5,136.667V62.333c0-27.614-22.386-50-50-50h-19h-21c-27.614,0-50,22.386-50,50v74.333h21H155.5z M104.468,55.423
		c3.905-3.905,10.237-3.905,14.143,0c3.905,3.905,3.905,10.237,0,14.143l-37.506,37.506c-1.953,1.953-4.512,2.929-7.071,2.929
		s-5.119-0.976-7.071-2.929L52.39,92.499c-3.905-3.905-3.905-10.237,0-14.143c3.905-3.905,10.237-3.905,14.143,0l7.501,7.501
		L104.468,55.423z"/>
	<path d="M150.5,182.667C150.5,182.667,150.5,182.667,150.5,182.667c0.691,0,1.348-0.14,1.946-0.393
		c1.196-0.506,2.155-1.464,2.661-2.661c0.253-0.598,0.393-1.256,0.393-1.946v-36h-119h-21v36c0,2.761,2.239,5,5,5H150.5z"/>
</g>
</svg>
