<?xml version="1.0" encoding="iso-8859-1"?>
<!-- Generator: Adobe Illustrator 17.1.0, SVG Export Plug-In . SVG Version: 6.00 Build 0)  -->
<!DOCTYPE svg PUBLIC "-//W3C//DTD SVG 1.1//EN" "http://www.w3.org/Graphics/SVG/1.1/DTD/svg11.dtd">
<svg version="1.1" id="Capa_1" xmlns="http://www.w3.org/2000/svg" xmlns:xlink="http://www.w3.org/1999/xlink" x="0px" y="0px"
	 viewBox="0 0 200 200" style="enable-background:new 0 0 200 200;" xml:space="preserve">
<g>
	<path d="M61.253,43.377c2.129,1.621,4.384,2.84,6.798,3.971c1.106,0.485,2.218,0.957,3.334,1.418
		c2.81,1.177,3.898,2.32,6.171,4.229c-3.057-2.566-6.594,2.506-3.562,5.051c2.633,2.211,5.673,1.807,8.208-0.338
		c1.208-1.023,1.705-2.338,1.746-3.72c3.356,4.594,7.107,8.122,11.105,9.77v10.915c0,0.585,0.12,1.139,0.306,1.66h-7.723
		c-2.048,0-3.708,1.66-3.708,3.708v5.952c0,2.048,1.66,3.708,3.708,3.708h24.723c2.048,0,3.708-1.66,3.708-3.708v-5.952
		c0-2.048-1.66-3.708-3.708-3.708h-7.723c0.187-0.521,0.306-1.074,0.306-1.66V63.758c3.999-1.648,7.749-5.177,11.105-9.77
		c0.041,1.383,0.538,2.698,1.746,3.72c2.535,2.145,5.575,2.548,8.208,0.338c3.032-2.545-0.505-7.617-3.562-5.051
		c2.273-1.909,3.361-3.052,6.171-4.229c1.116-0.46,2.228-0.933,3.334-1.418c2.415-1.131,4.67-2.35,6.798-3.971
		c3.78-2.878,5.594-7.368,6.133-11.939c1.014-8.608-5.657-15.658-13.539-17.494c0.254-2.033,0.387-3.922,0.387-5.611H68.272
		c0,1.689,0.133,3.578,0.387,5.611c-7.882,1.836-14.553,8.886-13.539,17.494C55.659,36.009,57.474,40.5,61.253,43.377z
		 M130.295,20.078c8.464,2.444,12.196,13.868,3.489,19.315c-3.56,2.227-8.59,3.346-12.334,5.715
		C125.519,37.182,128.61,28.048,130.295,20.078z M100.474,17.667h5.173v34.838h-5.86V23.322h-0.138l-7.791,4.204l-1.17-4.62
		L100.474,17.667z M69.705,20.078c1.685,7.97,4.777,17.104,8.846,25.03c-3.744-2.369-8.775-3.488-12.334-5.715
		C57.509,33.946,61.24,22.522,69.705,20.078z"/>
	<circle cx="100" cy="115.834" r="19.276"/>
	<path d="M65.187,64.69c-4.058,0-7.348,3.289-7.348,7.348v51.843c0,1.437,0.421,2.844,1.213,4.044l19.816,30.066
		c0,0-0.147,33.074-0.147,33.575h42.56c0-0.502-0.147-33.575-0.147-33.575l19.816-30.066c0.792-1.2,1.213-2.607,1.213-4.044V72.038
		c0-4.058-3.29-7.348-7.348-7.348s-7.348,3.289-7.348,7.348v49.639l-11.418,17.326H100H83.953l-11.418-17.326V72.038
		C72.535,67.979,69.245,64.69,65.187,64.69z"/>
</g>
</svg>
